<?xml version="1.0" standalone="no"?>
<!DOCTYPE svg PUBLIC "-//W3C//DTD SVG 20010904//EN"
 "http://www.w3.org/TR/2001/REC-SVG-20010904/DTD/svg10.dtd">
<svg version="1.0" xmlns="http://www.w3.org/2000/svg"
 width="1350.000000pt" height="1218.000000pt" viewBox="0 0 1350.000000 1218.000000"
 preserveAspectRatio="xMidYMid meet">
<metadata>
Created by potrace 1.10, written by Peter Selinger 2001-2011
</metadata>
<g transform="translate(0.000000,1218.000000) scale(0.100000,-0.100000)"
fill="#f0d756" stroke="none">
<path d="M7854 11868 c-5 -7 -12 -35 -15 -63 -4 -27 -12 -72 -18 -100 -6 -27
-18 -84 -27 -125 -34 -171 -46 -227 -55 -256 -5 -18 -14 -60 -19 -95 -5 -35
-16 -93 -25 -129 -9 -36 -20 -98 -26 -139 -5 -40 -16 -86 -24 -102 -19 -36
-20 -125 -1 -132 20 -8 36 13 36 48 0 17 4 35 10 41 5 5 14 37 19 69 18 116
32 190 42 210 5 11 14 49 19 85 17 109 37 207 44 218 3 5 10 36 16 69 14 89
37 201 56 273 25 97 24 134 -3 138 -11 2 -25 -3 -29 -10z"/>
<path d="M6163 11744 c-3 -8 0 -77 6 -152 7 -75 16 -202 21 -282 5 -80 14
-165 20 -190 6 -25 15 -128 20 -230 11 -218 26 -411 40 -496 6 -33 10 -96 11
-140 0 -43 4 -117 10 -164 5 -47 13 -148 18 -225 6 -77 15 -174 20 -215 10
-69 17 -159 41 -515 5 -71 14 -164 19 -205 10 -72 17 -166 42 -545 11 -172 20
-205 55 -205 23 0 26 46 10 157 -14 103 -28 261 -46 553 -5 74 -13 169 -19
210 -11 78 -27 276 -41 510 -4 74 -13 169 -19 210 -11 77 -25 257 -41 530 -5
85 -12 161 -15 169 -6 16 -30 299 -45 536 -5 77 -13 160 -19 185 -5 25 -15
143 -20 263 -6 119 -15 226 -21 237 -13 24 -38 26 -47 4z"/>
<path d="M6991 11048 c-6 -24 -15 -119 -21 -213 -12 -205 -37 -532 -46 -596
-6 -42 -4 -48 15 -54 42 -13 50 8 54 138 5 156 25 429 38 532 6 44 12 114 13
155 1 69 -1 75 -20 78 -17 2 -23 -5 -33 -40z"/>
<path d="M10230 10945 c-25 -36 -55 -77 -68 -93 -13 -15 -34 -43 -48 -62 -45
-67 -60 -86 -207 -285 -81 -110 -160 -215 -175 -234 -15 -19 -30 -41 -34 -50
-3 -9 -17 -28 -30 -44 -29 -35 -52 -65 -203 -272 -69 -93 -128 -175 -133 -180
-5 -6 -26 -35 -47 -65 -21 -30 -42 -59 -47 -65 -17 -21 -113 -148 -123 -163
-9 -14 -185 -254 -203 -277 -4 -5 -19 -26 -32 -45 -14 -19 -36 -48 -51 -65
-35 -40 -42 -72 -19 -85 21 -11 13 -20 156 173 52 70 94 132 94 137 0 6 4 10
9 10 4 0 27 28 49 63 23 34 51 73 62 87 11 14 83 111 160 215 76 105 152 207
167 227 119 159 365 493 389 528 51 74 106 147 147 195 15 18 27 37 27 43 0 6
7 17 15 25 43 44 235 310 235 327 0 14 -7 20 -22 20 -17 0 -35 -18 -68 -65z"/>
<path d="M4160 10955 c0 -15 111 -239 130 -262 5 -6 12 -24 16 -40 4 -15 14
-39 23 -53 9 -14 117 -227 240 -475 122 -247 228 -459 234 -470 34 -63 127
-255 127 -262 0 -5 11 -25 25 -46 44 -64 95 -42 56 24 -11 19 -59 111 -107
204 -47 94 -92 181 -99 195 -8 14 -86 174 -175 355 -89 182 -165 337 -170 345
-5 8 -18 35 -30 60 -11 25 -24 52 -30 60 -5 8 -28 53 -51 100 -22 47 -48 99
-57 115 -21 40 -26 51 -53 113 -20 45 -28 52 -51 52 -18 0 -28 -5 -28 -15z"/>
<path d="M8362 10747 c-9 -11 -32 -73 -83 -222 -12 -33 -27 -74 -35 -92 -8
-17 -14 -38 -14 -46 0 -9 -4 -18 -9 -22 -5 -3 -13 -19 -16 -36 -4 -17 -18 -56
-31 -85 -13 -30 -24 -62 -24 -72 0 -9 -7 -30 -16 -47 -9 -16 -24 -57 -35 -90
-11 -33 -24 -68 -29 -77 -6 -10 -19 -46 -31 -80 -11 -35 -27 -77 -35 -95 -8
-17 -14 -37 -14 -45 0 -8 -4 -18 -9 -23 -5 -6 -14 -26 -19 -45 -22 -73 -65
-186 -78 -201 -18 -20 -18 -58 0 -65 30 -11 51 15 76 93 13 43 30 89 37 103 7
14 13 33 13 42 0 9 4 19 9 23 5 3 13 20 17 38 3 17 13 48 22 67 27 64 31 75
53 140 12 36 25 69 30 74 5 6 9 19 9 31 0 11 9 37 20 58 11 20 20 46 20 56 0
11 5 23 10 26 6 3 10 13 10 22 0 9 9 34 19 57 10 23 27 68 37 101 10 33 21 65
25 70 4 6 17 39 29 75 12 36 28 77 36 92 8 14 14 32 14 39 0 7 9 32 21 56 21
44 19 77 -6 86 -7 3 -18 0 -23 -6z"/>
<path d="M7595 10613 c-9 -21 -20 -65 -25 -98 -10 -77 -29 -171 -42 -213 -5
-19 -14 -57 -19 -85 -18 -110 -31 -173 -41 -205 -5 -19 -14 -57 -19 -85 -18
-113 -31 -174 -41 -207 -7 -19 -15 -55 -19 -80 -4 -25 -15 -81 -24 -125 -9
-44 -23 -109 -30 -145 -8 -36 -21 -101 -29 -145 -9 -44 -22 -105 -31 -135 -22
-81 -20 -100 10 -100 14 0 27 6 29 13 27 100 29 114 56 272 6 39 16 78 21 88
6 10 14 46 19 80 16 109 36 213 43 224 4 6 11 37 16 70 5 32 15 81 20 108 6
28 19 84 27 125 9 41 23 102 30 136 8 33 14 73 14 88 0 15 4 35 10 45 9 17 14
42 40 186 6 33 18 83 26 110 19 62 16 109 -8 113 -12 2 -22 -9 -33 -35z"/>
<path d="M6917 10094 c-4 -4 -7 -34 -7 -66 0 -33 -4 -89 -10 -126 -5 -37 -14
-139 -20 -227 -10 -165 -23 -333 -41 -515 -6 -58 -14 -168 -19 -245 -10 -148
-22 -304 -40 -495 -6 -63 -15 -185 -21 -270 -5 -85 -16 -225 -24 -310 -8 -85
-19 -240 -25 -345 -5 -104 -14 -221 -19 -260 -6 -38 -13 -132 -17 -208 l-7
-139 24 4 c23 3 24 6 29 118 3 63 9 120 13 127 4 7 12 86 17 175 16 267 29
438 40 523 6 44 15 143 20 220 5 77 14 217 20 310 6 94 15 197 21 230 5 33 14
132 20 220 5 88 14 201 19 250 4 50 9 125 9 168 1 43 5 97 11 120 5 23 15 116
20 207 6 91 14 208 19 260 5 52 11 136 13 185 3 84 2 90 -17 93 -12 2 -24 0
-28 -4z"/>
<path d="M5671 9931 c-12 -8 -12 -17 2 -63 9 -29 21 -75 28 -103 6 -27 15 -63
21 -80 6 -16 17 -61 24 -100 7 -38 21 -95 30 -125 8 -30 20 -79 25 -109 5 -30
12 -58 16 -63 3 -6 12 -37 19 -71 8 -34 21 -91 30 -127 8 -36 18 -81 22 -100
5 -26 13 -36 30 -38 31 -5 35 16 17 89 -9 35 -20 84 -25 109 -4 25 -12 56 -18
70 -5 14 -17 61 -26 105 -10 44 -24 103 -32 130 -18 63 -33 127 -44 188 -5 27
-13 54 -19 60 -5 7 -12 35 -15 62 -7 52 -22 114 -37 153 -9 23 -25 28 -48 13z"/>
<path d="M8543 9638 c-15 -24 -61 -112 -82 -158 -12 -25 -25 -52 -30 -60 -6
-8 -30 -53 -54 -100 -56 -107 -123 -234 -172 -325 -21 -38 -41 -77 -45 -85 -4
-8 -14 -28 -23 -45 -9 -16 -27 -52 -41 -80 -14 -27 -32 -59 -38 -70 -58 -90
-70 -126 -48 -140 20 -13 50 18 84 87 20 40 40 80 45 88 5 8 21 42 37 74 15
32 38 74 51 93 13 19 23 37 23 42 0 4 11 28 24 52 14 24 45 82 69 129 63 121
129 245 167 315 73 133 81 150 78 170 -3 23 -32 32 -45 13z"/>
<path d="M1453 9524 c-7 -20 7 -45 33 -59 11 -5 235 -154 499 -330 264 -176
489 -324 500 -328 10 -4 22 -11 25 -15 3 -4 24 -20 48 -36 23 -16 42 -32 42
-36 0 -4 11 -12 24 -18 20 -9 27 -7 40 7 9 10 16 20 16 23 0 8 -98 78 -109 78
-5 0 -16 6 -23 13 -17 16 -527 357 -534 357 -4 0 -23 13 -43 29 -20 15 -41 30
-46 32 -12 5 -188 121 -195 129 -3 3 -23 17 -45 30 -22 13 -42 27 -45 30 -3 3
-23 17 -45 30 -22 13 -44 29 -50 35 -14 16 -62 45 -75 45 -6 0 -13 -7 -17 -16z"/>
<path d="M7826 9298 c-9 -12 -16 -32 -16 -43 0 -12 -4 -25 -9 -30 -5 -6 -14
-26 -19 -45 -6 -19 -20 -60 -32 -90 -12 -30 -25 -68 -30 -85 -4 -16 -17 -50
-28 -75 -11 -25 -23 -61 -27 -80 -4 -19 -11 -39 -15 -45 -5 -5 -18 -39 -30
-75 -13 -36 -26 -69 -30 -75 -4 -5 -18 -44 -30 -85 -13 -41 -27 -79 -31 -85
-4 -5 -17 -39 -29 -75 -12 -36 -28 -79 -36 -97 -8 -17 -14 -37 -14 -45 0 -8
-4 -18 -9 -23 -5 -6 -14 -26 -19 -45 -6 -19 -20 -60 -32 -90 -12 -30 -24 -66
-27 -80 -3 -14 -12 -34 -19 -45 -8 -11 -14 -29 -14 -42 0 -12 -4 -24 -9 -28
-5 -3 -13 -20 -17 -38 -6 -30 -11 -43 -48 -129 -9 -20 -16 -41 -16 -47 0 -6
-11 -36 -25 -67 -14 -31 -25 -64 -25 -73 0 -9 -7 -29 -16 -46 -9 -16 -20 -41
-24 -55 -5 -14 -30 -83 -55 -155 -26 -71 -67 -184 -90 -250 -24 -66 -51 -139
-59 -163 -18 -47 -15 -62 13 -62 14 0 25 17 41 63 12 34 29 76 36 94 8 17 14
36 14 42 0 6 4 19 10 29 5 9 21 49 34 87 37 105 48 137 61 170 21 54 33 89 40
120 4 16 10 32 14 35 4 3 18 37 30 75 13 39 27 75 31 80 4 6 15 35 24 65 10
30 24 69 31 85 8 17 25 62 39 100 46 130 49 140 63 172 7 17 13 35 13 41 0 5
7 23 15 38 8 16 15 36 15 44 0 9 4 20 9 25 5 6 14 26 19 45 6 19 20 60 32 90
12 30 24 64 27 75 3 11 11 34 18 50 38 87 45 107 45 120 0 8 11 40 25 71 14
31 25 64 25 73 0 9 7 30 16 46 9 17 25 57 36 90 11 33 24 65 28 70 4 6 18 44
31 85 12 41 29 84 36 95 7 11 13 27 13 36 0 9 7 30 15 45 8 16 15 36 15 45 0
9 7 22 15 29 9 7 15 23 13 34 -4 30 -42 33 -62 4z"/>
<path d="M5033 9233 c-20 -7 -15 -32 15 -82 15 -25 66 -122 112 -216 47 -93
88 -171 92 -173 5 -2 8 -8 8 -13 0 -6 32 -75 70 -155 63 -128 73 -144 95 -144
31 0 33 30 5 75 -11 17 -28 50 -39 75 -12 25 -25 52 -31 60 -5 8 -28 53 -51
100 -22 47 -48 99 -57 115 -8 17 -19 37 -23 45 -28 61 -51 107 -59 120 -5 8
-28 54 -50 102 -33 70 -59 104 -73 97 -1 0 -8 -3 -14 -6z"/>
<path d="M11916 9141 c-5 -7 -110 -73 -170 -105 -12 -6 -40 -24 -63 -39 -24
-15 -47 -27 -52 -27 -5 0 -16 -6 -23 -13 -7 -7 -44 -30 -83 -51 -38 -21 -89
-51 -113 -67 -24 -16 -48 -29 -53 -29 -6 0 -25 -11 -43 -25 -18 -14 -36 -25
-40 -25 -4 0 -80 -43 -169 -96 -89 -52 -173 -101 -187 -109 -34 -19 -33 -49 3
-53 19 -2 39 6 66 27 21 17 42 31 46 31 6 0 127 69 175 100 8 5 38 22 65 36
28 15 52 30 55 34 3 4 23 17 45 29 22 12 67 38 100 57 33 19 69 39 80 44 11 6
34 19 50 30 17 11 37 23 45 27 8 3 70 39 138 80 68 40 126 73 130 73 17 1 52
40 52 59 0 16 -6 21 -24 21 -14 0 -27 -4 -30 -9z"/>
<path d="M10193 8903 c-42 -38 -73 -63 -263 -214 -91 -72 -174 -138 -185 -148
-12 -9 -52 -41 -90 -70 -39 -30 -72 -57 -75 -60 -3 -4 -54 -45 -115 -91 -111
-85 -138 -107 -183 -147 -14 -13 -28 -23 -31 -23 -3 0 -17 -10 -31 -23 -14
-12 -56 -47 -95 -77 -38 -30 -75 -59 -82 -65 -7 -5 -18 -15 -25 -20 -7 -6 -35
-28 -63 -50 -27 -22 -54 -43 -60 -48 -5 -4 -64 -50 -130 -102 -66 -52 -124
-98 -130 -102 -5 -5 -39 -32 -75 -61 -76 -61 -66 -53 -155 -122 -38 -30 -76
-60 -83 -67 -7 -7 -46 -38 -85 -68 -40 -31 -102 -79 -138 -108 -36 -29 -101
-80 -145 -115 -43 -34 -95 -75 -114 -91 -66 -54 -169 -136 -234 -186 -36 -27
-66 -53 -66 -57 0 -4 -8 -9 -17 -12 -10 -3 -29 -16 -43 -29 -14 -12 -56 -47
-95 -76 -96 -72 -116 -101 -79 -115 10 -4 45 18 97 60 45 36 106 85 135 107
29 23 86 69 126 102 41 33 152 121 246 195 95 74 178 140 184 145 6 6 40 32
76 59 36 27 70 54 75 60 17 19 103 86 110 86 3 0 18 11 33 25 15 14 68 57 117
96 50 39 99 78 110 87 11 9 52 42 90 72 39 30 72 57 75 60 3 4 35 29 72 57 37
29 73 56 80 62 7 7 42 34 78 62 36 28 85 67 109 87 24 21 51 41 60 46 9 5 18
12 21 15 7 9 107 90 140 115 58 42 136 104 170 135 19 17 38 31 42 31 4 0 20
12 36 28 16 15 64 54 107 87 44 33 95 74 114 91 20 17 63 51 96 76 33 25 74
58 90 72 17 14 33 26 36 26 3 0 19 12 36 28 16 15 43 37 59 50 16 12 49 38 72
57 24 19 48 35 53 35 5 0 9 14 9 30 0 39 -25 40 -67 3z"/>
<path d="M3935 8900 c-13 -22 11 -55 123 -169 64 -65 149 -152 187 -192 84
-89 507 -530 618 -644 43 -44 145 -150 225 -235 81 -85 211 -220 288 -300 78
-80 157 -162 175 -182 20 -24 42 -38 56 -38 40 0 27 35 -39 102 -89 90 -706
731 -799 829 -19 21 -138 144 -264 275 -237 246 -321 333 -460 480 -78 82 -97
95 -110 74z"/>
<path d="M7240 8890 c-13 -24 -36 -135 -51 -239 -5 -41 -15 -83 -20 -94 -6
-10 -15 -44 -20 -76 -17 -103 -36 -196 -48 -224 -6 -16 -11 -42 -11 -58 0 -16
-6 -55 -14 -87 -13 -51 -21 -88 -57 -262 -5 -25 -12 -65 -15 -90 -4 -25 -10
-52 -15 -61 -4 -9 -13 -45 -20 -80 -21 -118 -43 -230 -79 -394 -5 -27 -17 -84
-26 -125 -9 -41 -23 -100 -31 -132 -15 -55 -12 -108 7 -108 19 0 39 46 55 130
28 138 43 210 65 305 12 50 25 110 30 135 5 25 15 79 23 120 8 41 19 93 25
115 16 62 33 139 43 197 4 29 15 85 23 123 8 39 21 104 30 145 8 41 22 107 31
145 9 39 20 103 26 144 5 41 15 83 21 94 6 11 14 46 19 76 4 31 15 85 23 121
9 36 21 88 27 116 7 28 9 58 6 67 -9 23 -34 21 -47 -3z"/>
<path d="M8709 8879 c-13 -17 -36 -46 -51 -64 -16 -18 -28 -35 -28 -38 0 -4
-29 -46 -65 -94 -35 -48 -76 -104 -90 -123 -137 -186 -288 -391 -307 -418 -13
-18 -30 -42 -38 -53 -8 -11 -34 -45 -58 -77 -172 -230 -232 -313 -232 -321 0
-5 -4 -11 -8 -13 -5 -1 -31 -34 -60 -73 -28 -38 -56 -75 -61 -81 -4 -6 -30
-42 -57 -80 -26 -38 -76 -106 -111 -151 -35 -45 -130 -175 -212 -290 -83 -114
-156 -215 -164 -223 -25 -26 -29 -56 -11 -71 15 -12 18 -11 28 4 6 11 72 101
146 202 74 101 142 193 150 205 8 12 20 28 26 34 13 14 76 99 108 146 13 19
31 41 40 49 9 7 16 17 16 21 0 6 214 301 258 355 4 6 19 26 32 45 14 19 30 40
35 46 6 6 17 22 25 34 8 13 38 53 67 90 28 38 57 79 64 92 6 12 15 25 19 28 5
3 45 55 89 115 45 61 90 122 101 136 22 29 59 79 87 119 14 20 164 225 201
275 4 6 30 39 57 75 70 91 80 111 63 121 -23 15 -35 10 -59 -22z"/>
<path d="M5925 8849 c-4 -12 0 -38 8 -58 19 -48 42 -138 77 -301 6 -25 14 -54
19 -65 8 -19 21 -74 40 -175 5 -25 13 -56 19 -70 5 -14 17 -61 26 -105 10 -44
24 -102 32 -130 18 -63 33 -127 44 -188 5 -27 14 -54 19 -61 5 -6 13 -36 16
-66 4 -30 10 -66 14 -80 18 -56 40 -138 51 -185 6 -27 17 -75 25 -105 47 -188
75 -302 82 -342 7 -38 25 -51 47 -35 17 12 17 16 1 77 -19 70 -40 158 -55 230
-6 25 -13 52 -17 60 -7 15 -27 101 -42 180 -5 25 -14 56 -19 70 -6 14 -18 61
-27 105 -9 44 -23 98 -31 120 -7 22 -16 60 -20 85 -3 25 -15 77 -26 115 -11
39 -24 94 -29 124 -5 29 -14 62 -19 72 -6 10 -10 26 -10 37 0 11 -6 42 -14 68
-8 27 -19 72 -26 99 -6 28 -17 75 -24 105 -8 30 -22 84 -30 120 -9 36 -21 86
-26 112 -5 26 -13 55 -18 65 -5 10 -12 40 -16 67 -3 27 -11 55 -17 62 -17 21
-47 17 -54 -7z"/>
<path d="M2736 8664 c-3 -9 -4 -19 -1 -24 7 -11 445 -303 470 -313 11 -4 22
-11 25 -15 3 -4 100 -70 215 -146 116 -77 227 -151 248 -165 21 -14 45 -31 55
-36 32 -20 127 -85 152 -105 30 -24 60 -18 60 11 0 13 -76 69 -267 195 -148
97 -292 193 -321 213 -28 20 -62 41 -75 48 -26 15 -44 26 -108 73 -26 19 -63
44 -81 55 -18 11 -42 27 -55 35 -12 8 -80 54 -152 103 -71 48 -136 87 -144 87
-8 0 -18 -7 -21 -16z"/>
<path d="M7901 8423 c-48 -99 -120 -236 -174 -333 -55 -98 -69 -131 -63 -147
10 -25 39 -9 67 37 15 25 53 96 85 157 98 188 108 206 147 274 45 80 47 99 9
99 -24 0 -32 -9 -71 -87z"/>
<path d="M10785 8480 c-4 -6 -17 -16 -28 -21 -24 -11 -41 -21 -104 -62 -24
-15 -67 -40 -96 -56 -29 -16 -109 -62 -178 -103 -68 -41 -131 -77 -139 -81 -8
-4 -28 -16 -45 -26 -16 -11 -54 -32 -82 -47 -29 -15 -53 -31 -53 -36 0 -4 -5
-8 -11 -8 -6 0 -44 -19 -83 -43 -39 -24 -78 -46 -86 -50 -8 -4 -40 -23 -70
-42 -30 -19 -79 -46 -107 -61 -29 -15 -53 -31 -53 -36 0 -4 -5 -8 -11 -8 -10
0 -124 -64 -179 -100 -8 -6 -22 -13 -30 -17 -8 -4 -59 -33 -113 -65 -55 -32
-103 -58 -108 -58 -14 0 -41 -48 -34 -60 11 -17 46 -11 79 13 17 13 67 44 111
70 44 26 87 52 95 57 8 6 24 14 36 19 11 5 51 28 88 50 36 23 68 41 71 41 2 0
23 13 47 29 24 16 70 43 103 61 33 18 67 37 75 44 8 6 36 22 63 36 26 13 47
28 47 32 0 5 6 8 13 9 6 0 53 25 102 55 50 29 101 59 115 66 14 7 53 29 88 50
34 21 64 38 67 38 2 0 24 14 48 30 25 17 47 30 50 30 4 0 25 12 49 28 72 46
82 51 126 73 23 12 45 25 47 30 3 4 29 19 59 33 60 28 79 47 74 73 -4 21 -33
29 -43 13z"/>
<path d="M5457 8383 c-13 -12 -7 -44 16 -81 12 -20 71 -136 130 -257 60 -121
112 -227 118 -235 5 -8 14 -26 20 -40 17 -38 34 -72 73 -150 10 -19 27 -53 38
-75 11 -22 25 -49 31 -60 5 -11 23 -47 39 -80 16 -33 33 -67 38 -75 6 -8 15
-26 20 -40 6 -14 18 -38 27 -55 27 -48 31 -57 54 -110 12 -27 25 -52 28 -55 4
-3 18 -30 30 -60 13 -30 27 -57 30 -60 4 -3 17 -29 30 -59 13 -30 29 -60 36
-68 7 -7 15 -18 17 -25 2 -6 12 -9 21 -5 21 8 22 50 3 66 -8 7 -17 23 -20 37
-4 14 -18 43 -31 65 -14 21 -25 45 -25 53 0 8 -4 17 -9 20 -5 4 -19 27 -31 54
-27 59 -58 123 -70 142 -4 8 -18 34 -29 57 -11 23 -25 50 -30 60 -6 10 -20 38
-31 63 -11 25 -24 52 -29 60 -5 8 -46 89 -91 180 -45 91 -85 172 -90 180 -5 8
-67 135 -139 281 -124 253 -151 295 -174 272z"/>
<path d="M1910 8265 c0 -25 4 -35 15 -35 9 0 43 -13 78 -29 155 -73 237 -111
302 -141 90 -41 204 -94 280 -130 33 -16 89 -42 125 -58 162 -74 206 -95 219
-105 7 -6 29 -17 48 -23 32 -11 35 -10 45 12 6 13 9 25 7 27 -15 11 -139 67
-161 72 -15 4 -32 13 -39 21 -6 8 -16 14 -21 14 -5 0 -46 17 -91 39 -45 21
-113 53 -152 71 -38 18 -104 48 -145 67 -41 20 -102 48 -135 63 -33 15 -91 42
-130 60 -38 18 -105 50 -149 71 -43 21 -82 39 -87 39 -5 0 -9 -16 -9 -35z"/>
<path d="M6465 8087 c-4 -13 -1 -74 5 -137 6 -63 15 -180 20 -260 5 -79 14
-167 19 -195 5 -27 12 -113 15 -190 4 -77 11 -167 16 -200 5 -33 10 -89 10
-125 0 -36 4 -71 9 -78 13 -21 46 -10 44 13 -3 21 -18 263 -32 500 -5 77 -14
181 -20 230 -6 50 -16 166 -22 259 -6 94 -15 178 -20 188 -14 25 -37 22 -44
-5z"/>
<path d="M7603 7848 c-10 -15 -49 -89 -134 -253 -34 -66 -77 -147 -95 -180
-18 -33 -42 -80 -54 -105 -11 -25 -25 -52 -30 -60 -5 -8 -22 -40 -38 -70 -39
-74 -150 -284 -179 -339 -29 -55 -29 -71 0 -71 20 0 32 18 80 113 32 61 73
139 92 172 19 33 60 110 91 170 31 61 71 137 88 170 18 33 59 110 91 170 96
184 127 239 137 252 6 7 8 20 4 28 -7 18 -42 20 -53 3z"/>
<path d="M4021 7821 c-11 -7 -10 -13 4 -34 9 -14 23 -28 32 -31 13 -6 141 -88
168 -109 9 -6 383 -254 427 -282 9 -5 145 -97 303 -202 157 -106 290 -193 295
-193 5 0 10 -3 12 -7 5 -12 93 -70 117 -78 11 -3 21 -11 21 -16 0 -5 10 -13
23 -18 13 -5 36 -20 53 -33 27 -23 101 -72 282 -187 40 -25 91 -61 114 -78 44
-36 46 -37 68 -23 25 15 -5 51 -78 95 -37 22 -71 43 -77 48 -5 4 -21 16 -34
27 -13 11 -30 20 -38 20 -7 0 -13 4 -13 8 0 5 -10 14 -22 21 -60 31 -172 107
-187 125 -7 9 -18 16 -24 16 -9 0 -114 67 -127 81 -3 3 -23 16 -45 29 -22 13
-44 28 -50 33 -8 6 -287 193 -429 287 -13 8 -36 24 -52 34 -16 11 -155 103
-309 205 -154 102 -306 205 -339 228 -60 45 -72 49 -95 34z"/>
<path d="M3099 7724 c-11 -14 -9 -19 11 -35 14 -10 34 -21 45 -25 11 -3 56
-23 100 -44 44 -21 110 -52 148 -69 120 -55 200 -93 292 -137 50 -23 103 -46
118 -49 14 -4 31 -13 38 -21 6 -8 15 -14 20 -14 4 0 52 -21 106 -46 54 -25
127 -59 163 -76 123 -57 135 -63 152 -76 24 -20 73 -12 73 12 0 19 -25 35
-140 87 -38 17 -99 45 -135 61 -36 17 -87 40 -115 53 -174 80 -212 98 -225
106 -8 5 -22 12 -30 15 -62 25 -208 91 -230 104 -31 19 -103 50 -115 50 -7 0
-18 7 -25 15 -7 8 -18 15 -25 15 -12 0 -51 17 -95 42 -8 4 -25 12 -37 17 -11
6 -24 15 -28 20 -10 16 -51 13 -66 -5z"/>
<path d="M9010 7440 c-19 -16 -40 -30 -47 -30 -6 0 -18 -6 -25 -13 -7 -7 -26
-20 -43 -29 -101 -51 -123 -64 -152 -85 -17 -12 -36 -23 -41 -23 -5 0 -28 -13
-50 -30 -23 -16 -45 -30 -48 -30 -6 0 -130 -71 -174 -100 -8 -5 -41 -25 -74
-42 -115 -64 -131 -74 -171 -99 -22 -14 -48 -28 -57 -32 -10 -3 -18 -11 -18
-16 0 -5 -12 -12 -27 -16 -16 -3 -42 -17 -60 -31 -17 -13 -35 -24 -38 -24 -4
0 -26 -13 -50 -30 -24 -16 -47 -30 -50 -30 -7 0 -235 -133 -277 -161 -15 -11
-30 -19 -34 -19 -3 0 -40 -20 -81 -45 -40 -25 -78 -45 -83 -45 -13 0 -50 -51
-44 -61 14 -23 56 -4 244 111 8 5 39 21 68 36 28 15 52 31 52 36 0 4 5 8 11 8
10 0 123 63 179 100 8 6 24 14 35 19 11 5 37 21 58 35 21 14 57 36 80 47 23
12 44 25 47 28 5 7 48 30 125 69 17 9 32 19 35 22 3 4 30 21 60 37 60 32 340
196 380 223 14 9 46 27 73 40 26 13 47 26 47 29 0 4 23 17 50 30 28 13 50 27
50 31 0 4 12 11 27 15 36 9 125 74 120 89 -8 24 -61 17 -97 -14z"/>
<path d="M10375 7350 c-38 -17 -76 -30 -83 -30 -8 0 -28 -6 -45 -14 -65 -27
-94 -38 -162 -61 -192 -65 -251 -87 -259 -96 -6 -5 -19 -9 -30 -9 -12 0 -34
-7 -50 -15 -15 -8 -35 -15 -43 -15 -8 0 -27 -6 -41 -14 -32 -16 -85 -35 -130
-46 -18 -4 -38 -12 -45 -17 -7 -5 -39 -17 -72 -27 -33 -10 -73 -24 -90 -32
-16 -7 -42 -16 -58 -20 -15 -3 -30 -10 -33 -15 -3 -5 -14 -9 -26 -9 -11 0 -32
-6 -46 -14 -15 -8 -60 -25 -101 -38 -41 -12 -84 -30 -95 -39 -42 -34 13 -67
59 -35 11 7 49 23 85 35 36 13 70 26 75 31 6 4 28 11 50 15 22 4 45 11 50 15
6 4 35 15 65 25 64 21 123 42 165 59 17 7 63 24 103 37 41 13 76 27 79 31 2 5
14 8 26 8 12 0 35 7 51 15 15 8 36 15 45 15 10 0 26 7 37 15 10 8 28 15 39 15
11 0 33 7 49 15 15 8 33 15 38 15 6 0 24 6 41 14 18 8 57 22 87 31 30 9 69 23
85 31 17 7 42 16 58 20 15 3 30 10 33 15 3 5 17 9 31 9 13 0 37 7 51 15 15 8
54 24 87 34 46 14 60 23 60 37 0 31 -60 28 -140 -6z"/>
<path d="M2087 7196 c-12 -31 4 -42 86 -60 45 -10 93 -23 107 -28 14 -5 45
-14 70 -18 64 -12 146 -33 289 -74 29 -9 62 -16 73 -16 11 0 43 -7 72 -16 90
-28 115 -35 163 -44 27 -5 73 -16 103 -25 30 -10 80 -21 110 -26 30 -5 69 -16
87 -24 17 -8 40 -15 51 -15 11 0 36 -7 55 -15 46 -19 69 -11 65 24 -3 24 -8
27 -63 34 -33 5 -65 13 -72 18 -6 6 -33 14 -60 19 -60 11 -208 48 -307 76 -26
8 -56 14 -66 14 -10 0 -34 7 -53 15 -20 8 -50 15 -66 15 -16 0 -32 4 -35 9 -4
5 -30 12 -59 16 -28 4 -56 11 -62 15 -5 5 -32 13 -60 19 -46 9 -78 17 -215 51
-25 7 -65 18 -90 25 -82 25 -117 28 -123 11z"/>
<path d="M11648 7124 c-10 -10 -207 -53 -337 -74 -35 -6 -68 -13 -73 -16 -12
-8 -135 -32 -220 -44 -31 -4 -62 -11 -68 -15 -13 -8 -100 -26 -219 -45 -36 -6
-69 -14 -75 -19 -6 -5 -47 -14 -91 -20 -44 -6 -109 -18 -145 -26 -36 -9 -92
-21 -125 -26 -33 -5 -73 -14 -89 -19 -16 -6 -41 -10 -57 -10 -45 0 -59 -10
-59 -42 0 -34 -10 -34 125 -3 39 8 99 20 134 25 35 6 68 13 74 17 12 7 121 30
208 42 30 5 65 13 76 19 11 6 53 16 94 21 41 6 106 18 144 26 39 9 95 20 126
24 30 5 71 13 90 19 39 12 245 55 324 68 17 3 59 11 95 19 36 8 78 17 93 20
24 5 28 10 25 33 -3 26 -34 42 -50 26z"/>
<path d="M4437 7114 c-13 -14 -7 -45 11 -50 19 -7 115 -51 205 -96 31 -15 62
-28 67 -28 6 0 28 -11 50 -25 22 -14 45 -25 51 -25 6 0 43 -16 83 -35 40 -19
77 -35 81 -35 5 0 16 -6 24 -14 9 -7 39 -21 66 -31 28 -10 57 -24 65 -30 8 -6
35 -19 60 -29 25 -10 52 -22 60 -27 35 -20 104 -49 116 -49 8 0 14 -4 14 -9 0
-5 28 -19 63 -31 34 -13 69 -28 77 -35 8 -6 31 -18 50 -25 47 -17 233 -109
245 -121 13 -13 85 -11 85 2 0 17 -27 36 -110 75 -212 102 -259 124 -305 144
-55 24 -149 68 -238 112 -31 15 -62 28 -67 28 -5 0 -32 14 -60 30 -28 17 -58
30 -66 30 -8 0 -31 11 -52 23 -20 13 -50 27 -67 31 -16 4 -37 13 -45 20 -8 7
-37 22 -65 32 -27 10 -56 24 -63 31 -7 7 -19 13 -26 13 -7 0 -34 11 -60 25
-25 13 -70 34 -99 46 -28 12 -59 28 -68 36 -19 16 -72 27 -82 17z"/>
<path d="M5660 7083 c0 -10 35 -54 77 -98 273 -287 302 -315 322 -315 45 0 18
40 -115 176 -74 77 -158 165 -186 197 -35 39 -58 57 -74 57 -16 0 -24 -6 -24
-17z"/>
<path d="M3504 6836 c-3 -9 -4 -21 -2 -27 4 -12 134 -49 174 -49 11 0 25 -5
30 -10 6 -6 33 -15 60 -20 62 -12 160 -35 199 -48 17 -5 64 -17 105 -26 41
-10 98 -24 125 -31 28 -8 82 -22 120 -30 39 -9 93 -23 120 -30 28 -8 77 -21
110 -30 33 -9 74 -20 91 -25 52 -17 64 -13 64 20 0 24 -5 31 -27 35 -69 13
-172 37 -218 50 -27 8 -81 22 -120 30 -66 15 -140 35 -211 56 -16 5 -50 13
-75 19 -24 5 -71 16 -104 24 -33 8 -80 20 -105 26 -25 6 -67 17 -95 25 -198
55 -233 61 -241 41z"/>
<path d="M8815 6797 c-11 -7 -47 -21 -80 -32 -33 -10 -71 -24 -85 -31 -14 -7
-56 -23 -95 -35 -38 -12 -74 -26 -79 -31 -6 -4 -16 -8 -24 -8 -8 0 -28 -6 -45
-13 -42 -18 -93 -36 -137 -49 -19 -5 -39 -14 -44 -19 -6 -5 -19 -9 -31 -9 -11
0 -29 -6 -40 -13 -11 -7 -47 -21 -80 -31 -33 -10 -73 -24 -90 -31 -16 -7 -57
-22 -90 -33 -33 -11 -73 -27 -90 -36 -16 -9 -37 -16 -45 -16 -13 0 -121 -40
-207 -76 -17 -8 -39 -14 -48 -14 -9 0 -30 -9 -47 -21 -27 -19 -28 -23 -14 -38
9 -10 16 -28 16 -40 0 -20 4 -22 28 -17 61 15 161 37 237 52 44 8 114 21 155
29 41 8 104 20 139 25 35 6 68 13 73 16 12 8 134 32 218 44 70 9 122 35 118
58 -4 22 -49 27 -85 9 -15 -8 -53 -18 -83 -22 -30 -3 -68 -10 -85 -15 -16 -4
-66 -16 -110 -25 -44 -9 -136 -29 -205 -45 -69 -16 -152 -35 -185 -41 -71 -13
-167 -21 -145 -13 8 4 29 12 45 20 36 16 98 38 185 66 36 11 71 25 78 31 7 5
29 13 50 17 42 9 269 86 293 99 9 5 33 13 53 16 20 4 39 11 42 16 3 5 12 9 21
9 8 0 29 6 46 14 18 8 41 16 52 19 11 3 45 15 75 27 30 11 87 32 126 45 40 13
80 28 90 34 11 6 54 20 97 33 78 22 105 43 93 74 -7 17 -35 18 -61 1z"/>
<path d="M9925 6766 c-46 -15 -126 -33 -203 -46 -58 -9 -134 -25 -197 -41 -22
-6 -64 -14 -93 -19 -29 -5 -76 -14 -105 -20 -29 -7 -81 -18 -117 -25 -36 -8
-87 -19 -115 -25 -27 -6 -78 -15 -113 -20 -35 -5 -68 -13 -75 -17 -11 -8 -71
-19 -216 -43 -35 -6 -68 -13 -74 -17 -6 -4 -27 -9 -47 -13 -29 -4 -35 -9 -35
-30 0 -23 3 -25 40 -23 22 2 63 9 90 17 28 8 77 19 110 24 33 6 92 18 130 27
39 9 97 20 130 26 33 5 67 12 75 15 14 6 120 29 185 40 17 3 59 11 95 19 36 7
99 21 140 29 41 9 98 21 125 27 28 6 79 15 114 20 36 6 73 15 82 20 10 5 30 9
46 9 50 0 101 20 108 41 4 11 5 22 3 24 -13 11 -49 12 -83 1z"/>
<path d="M6679 6668 c0 -2 -3 -207 -5 -457 -2 -250 -6 -456 -8 -458 -2 -2 -23
2 -48 8 -59 16 -121 -7 -189 -71 -56 -52 -63 -84 -26 -118 42 -40 150 -20 247
46 l55 37 8 100 c4 55 6 212 3 348 -3 196 -2 248 8 245 7 -2 38 -32 69 -66 65
-73 76 -108 58 -188 -13 -58 -10 -74 18 -74 35 0 55 81 53 208 -2 104 -5 117
-33 170 -17 33 -47 69 -70 87 -44 33 -63 61 -74 115 -8 39 -31 70 -52 70 -7 0
-13 -1 -14 -2z"/>
<path d="M4792 6498 c3 -31 6 -33 48 -39 25 -4 77 -16 115 -27 39 -11 92 -22
118 -26 27 -3 58 -13 70 -21 12 -8 32 -15 45 -15 14 0 45 -7 71 -17 50 -17
101 -12 101 11 0 17 -63 43 -125 51 -27 4 -58 13 -69 21 -11 8 -34 14 -50 14
-16 0 -43 4 -60 10 -17 5 -65 19 -106 30 -41 12 -89 26 -106 31 -49 15 -56 12
-52 -23z"/>
<path d="M5431 6346 c-23 -27 6 -38 230 -90 30 -8 65 -19 78 -25 30 -17 75
-10 79 11 4 22 -43 46 -105 55 -27 3 -60 12 -75 19 -15 8 -38 14 -51 14 -14 0
-38 7 -53 15 -36 19 -88 19 -103 1z"/>
<path d="M406 6058 c-23 -13 -20 -37 7 -43 12 -3 393 -4 847 -3 l825 3 0 23 0
22 -832 4 c-469 1 -838 -1 -847 -6z"/>
<path d="M2188 6059 c-5 -4 -8 -15 -6 -25 3 -18 31 -19 869 -22 772 -2 868 0
879 13 9 11 10 19 2 27 -11 11 -1725 18 -1744 7z"/>
<path d="M4021 6054 c-13 -10 -13 -14 -2 -28 12 -15 94 -16 895 -14 l881 3 3
23 c2 13 -2 22 -10 23 -7 0 -404 1 -882 2 -638 2 -873 -1 -885 -9z"/>
<path d="M7484 6057 c-19 -11 -18 -33 2 -41 27 -10 4508 -7 4524 4 12 7 12 13
4 27 -11 17 -116 18 -2263 18 -1239 0 -2259 -4 -2267 -8z"/>
<path d="M12108 6053 c-5 -7 -8 -20 -4 -28 5 -13 50 -15 335 -15 181 0 336 3
345 6 19 7 21 30 4 40 -7 5 -160 8 -341 9 -254 1 -331 -2 -339 -12z"/>
<path d="M5721 5895 c-18 -8 -45 -15 -59 -15 -14 0 -53 -6 -86 -14 -82 -18
-198 -43 -271 -56 -33 -7 -89 -18 -125 -26 -119 -26 -204 -44 -268 -54 -35 -6
-72 -15 -82 -20 -10 -6 -36 -10 -57 -10 -71 0 -119 -45 -74 -69 15 -8 30 -8
58 3 21 7 63 19 93 25 103 22 205 42 263 51 33 6 64 13 70 17 13 8 122 30 215
43 35 5 68 13 75 17 13 8 108 27 217 42 76 11 140 36 140 55 0 28 -55 34 -109
11z"/>
<path d="M7450 5830 c0 -23 24 -35 110 -56 30 -7 82 -20 115 -29 33 -9 85 -23
115 -30 30 -7 68 -18 83 -24 16 -6 43 -11 62 -11 19 0 36 -4 40 -9 3 -6 27
-13 53 -17 26 -3 52 -10 57 -14 6 -5 33 -11 60 -15 28 -4 55 -11 60 -15 6 -5
33 -13 60 -19 89 -19 169 -39 202 -51 42 -15 97 -9 101 11 3 17 -49 42 -128
58 -121 26 -162 37 -285 71 -16 5 -48 12 -70 16 -22 4 -48 11 -58 16 -10 5
-39 13 -65 18 -79 15 -166 36 -182 43 -8 4 -35 11 -60 16 -67 15 -151 37 -183
50 -16 6 -42 11 -58 11 -22 0 -29 -5 -29 -20z"/>
<path d="M5823 5729 c-18 -5 -35 -14 -38 -19 -3 -6 -16 -10 -29 -10 -12 0 -31
-7 -42 -15 -10 -8 -26 -15 -34 -15 -8 0 -28 -7 -43 -15 -15 -8 -43 -17 -63
-21 -19 -3 -37 -10 -40 -15 -3 -5 -13 -9 -22 -9 -9 0 -29 -6 -43 -14 -15 -7
-60 -24 -100 -36 -41 -13 -81 -27 -89 -31 -8 -4 -43 -17 -78 -29 -34 -11 -70
-24 -80 -29 -9 -6 -44 -18 -77 -27 -33 -9 -71 -23 -85 -29 -14 -7 -52 -21 -85
-30 -33 -10 -71 -24 -85 -30 -32 -15 -86 -35 -125 -44 -17 -4 -39 -13 -50 -18
-11 -6 -38 -16 -60 -22 -54 -14 -80 -34 -72 -55 8 -20 49 -21 85 -2 15 7 43
19 62 25 19 7 62 22 95 33 33 11 78 28 100 38 22 9 60 23 85 29 25 7 59 19 75
26 17 7 59 23 95 35 36 12 70 25 75 30 6 4 26 11 45 15 19 4 59 18 89 31 29
13 62 24 72 24 17 0 41 9 124 45 17 8 62 24 100 36 39 12 75 25 80 29 6 4 39
17 75 29 124 42 154 62 129 86 -10 9 -23 10 -46 4z"/>
<path d="M7404 5726 c-3 -8 -3 -19 0 -24 5 -9 90 -52 181 -92 73 -32 148 -66
255 -117 52 -25 115 -54 140 -65 45 -21 68 -32 125 -61 17 -9 53 -26 80 -37
28 -12 73 -33 100 -45 28 -13 84 -39 125 -58 41 -19 111 -52 155 -72 180 -83
234 -109 310 -145 44 -21 92 -42 107 -45 15 -4 32 -13 39 -21 6 -8 17 -14 25
-14 7 0 39 -13 71 -30 161 -81 248 -120 261 -115 21 8 10 48 -18 62 -14 6 -56
26 -95 44 -38 17 -92 41 -120 54 -27 12 -61 28 -75 34 -14 6 -32 15 -40 20
-15 9 -46 23 -90 41 -14 5 -32 14 -40 19 -8 5 -33 17 -55 26 -22 9 -47 20 -55
25 -29 18 -103 50 -115 50 -7 0 -18 7 -25 15 -7 8 -17 15 -22 15 -6 0 -40 14
-77 31 -36 17 -95 44 -131 61 -36 17 -96 45 -135 63 -174 82 -222 103 -245
110 -14 4 -32 13 -40 20 -8 7 -36 20 -62 30 -26 10 -53 24 -59 31 -6 8 -18 14
-25 14 -8 0 -22 4 -32 10 -16 9 -114 53 -192 87 -19 9 -66 30 -105 49 -94 44
-114 49 -121 30z"/>
<path d="M4546 5658 c-19 -11 -97 -28 -219 -48 -33 -6 -64 -13 -69 -16 -11 -7
-117 -28 -226 -44 -34 -6 -70 -14 -80 -19 -16 -10 -83 -23 -206 -42 -33 -5
-64 -13 -70 -18 -6 -5 -40 -12 -76 -16 -36 -4 -78 -10 -95 -15 -16 -4 -65 -16
-108 -26 -80 -18 -102 -34 -76 -59 12 -10 25 -10 74 1 33 8 107 23 165 35 58
11 128 27 155 35 28 8 79 19 115 24 36 5 94 16 130 25 36 9 94 20 130 25 36 6
72 13 80 16 8 4 44 13 80 20 36 7 101 20 145 29 44 9 106 20 139 25 56 8 76
20 76 47 0 7 -9 17 -19 23 -24 12 -21 12 -45 -2z"/>
<path d="M5870 5610 c-34 -27 -170 -108 -285 -169 -25 -14 -45 -28 -45 -32 0
-4 -12 -10 -27 -14 -16 -3 -41 -16 -58 -28 -16 -12 -51 -33 -77 -47 -27 -13
-48 -28 -48 -32 0 -5 -5 -8 -11 -8 -10 0 -123 -63 -179 -100 -8 -6 -24 -14
-36 -19 -11 -5 -51 -28 -88 -50 -36 -23 -70 -41 -75 -41 -5 0 -14 -7 -21 -15
-7 -9 -32 -25 -54 -36 -66 -33 -130 -70 -147 -85 -8 -8 -19 -14 -23 -14 -5 0
-56 -29 -115 -64 -169 -102 -175 -105 -196 -115 -11 -5 -37 -21 -58 -35 -21
-14 -40 -26 -44 -26 -3 0 -39 -20 -80 -45 -40 -25 -76 -45 -78 -45 -2 0 -23
-12 -47 -27 -70 -45 -80 -51 -135 -79 -29 -15 -53 -31 -53 -36 0 -4 -5 -8 -11
-8 -6 0 -45 -20 -86 -45 -40 -25 -78 -45 -83 -45 -11 0 -60 -51 -60 -62 0 -16
51 -20 68 -6 18 15 170 108 177 108 2 0 23 12 47 28 72 46 82 51 125 73 23 11
47 27 54 35 6 8 16 14 21 14 6 0 58 29 117 64 170 102 175 105 197 115 18 8
132 74 174 101 8 5 32 19 52 30 20 11 56 32 80 47 72 47 81 52 125 74 23 11
47 27 54 35 6 8 16 14 21 14 6 0 55 27 110 60 54 33 103 60 107 60 4 0 26 13
47 28 21 16 60 39 87 52 26 13 47 27 47 32 0 4 4 8 10 8 5 0 50 24 100 53 50
28 98 57 108 62 10 6 41 25 68 43 28 17 54 32 59 32 4 0 23 11 41 25 18 14 37
25 42 25 5 0 27 12 48 28 21 15 51 33 67 39 19 9 27 20 27 38 0 31 -24 33 -60
5z"/>
<path d="M7335 5610 c-6 -20 9 -50 26 -50 4 0 65 -39 135 -86 71 -47 135 -89
144 -92 8 -3 18 -9 21 -14 3 -5 111 -78 240 -163 270 -179 259 -172 310 -207
21 -16 42 -28 47 -28 4 0 17 -7 27 -15 109 -82 232 -165 244 -165 9 0 21 24
21 44 0 6 -17 20 -37 31 -20 11 -41 25 -48 30 -22 20 -106 75 -115 75 -5 0
-15 6 -22 13 -7 7 -67 48 -133 91 -66 44 -178 118 -248 165 -71 47 -136 91
-145 96 -9 6 -33 22 -53 38 -20 15 -41 27 -46 27 -5 0 -20 11 -33 25 -13 14
-28 25 -33 25 -6 0 -50 27 -99 60 -48 33 -91 60 -95 60 -5 1 -24 14 -43 30
-40 35 -56 37 -65 10z"/>
<path d="M5904 5497 c-59 -50 -84 -70 -149 -119 -16 -12 -32 -25 -35 -28 -3
-4 -50 -41 -105 -83 -99 -76 -206 -161 -274 -217 -68 -56 -146 -116 -174 -133
-19 -13 -27 -25 -25 -40 5 -39 35 -30 107 30 38 32 93 76 122 98 28 22 66 52
83 67 17 15 81 66 141 113 121 95 165 131 198 158 12 10 61 48 109 84 84 63
107 91 93 113 -11 18 -29 10 -91 -43z"/>
<path d="M8663 5534 c-15 -39 20 -55 187 -85 30 -6 63 -15 74 -20 10 -6 39
-14 65 -19 87 -16 146 -31 178 -46 17 -8 40 -14 50 -14 11 0 53 -9 94 -20 41
-11 94 -25 119 -31 25 -6 67 -17 94 -25 26 -8 56 -14 64 -14 9 0 34 -6 57 -14
22 -7 74 -21 115 -30 74 -17 123 -30 229 -60 29 -9 65 -16 80 -16 15 0 31 -4
36 -9 6 -4 55 -18 110 -31 55 -12 114 -29 132 -36 41 -18 79 -18 87 1 8 21
-31 54 -73 60 -45 8 -149 32 -221 52 -30 8 -68 19 -85 23 -16 5 -46 11 -65 14
-34 6 -70 16 -189 50 -29 9 -65 16 -80 16 -15 0 -32 5 -37 10 -6 6 -33 15 -60
20 -66 12 -168 38 -281 71 -18 6 -54 14 -80 19 -64 12 -134 30 -155 41 -10 5
-30 9 -45 9 -16 0 -59 9 -98 21 -38 11 -84 25 -101 30 -17 5 -39 9 -50 9 -11
0 -37 9 -59 20 -48 24 -83 26 -92 4z"/>
<path d="M7227 5473 c-15 -14 -6 -38 26 -67 17 -17 131 -134 252 -260 121
-126 247 -257 280 -291 33 -35 128 -133 210 -220 153 -161 176 -185 398 -414
124 -128 157 -150 165 -110 1 8 -30 49 -70 91 -306 316 -568 588 -643 667 -50
52 -110 115 -135 140 -86 88 -325 338 -375 392 -61 67 -93 88 -108 72z"/>
<path d="M3135 5364 c-27 -8 -86 -21 -130 -30 -44 -8 -104 -19 -134 -25 -29
-5 -62 -14 -72 -19 -10 -6 -30 -10 -45 -10 -15 0 -55 -6 -88 -14 -72 -16 -182
-39 -286 -60 -41 -9 -97 -20 -125 -26 -27 -6 -84 -18 -125 -26 -78 -16 -160
-33 -283 -59 -39 -8 -101 -19 -137 -25 -107 -16 -171 -45 -156 -69 10 -15 70
-14 130 3 28 8 78 20 111 26 33 6 92 17 130 25 39 9 97 20 130 25 33 6 67 13
75 16 17 7 128 30 215 44 33 6 73 14 90 19 16 5 55 14 85 21 97 19 193 38 259
49 35 7 72 16 82 21 10 6 30 10 44 10 27 0 122 19 285 57 39 9 51 22 39 44
-11 22 -26 22 -94 3z"/>
<path d="M6119 5358 c-18 -22 -119 -158 -292 -395 -104 -142 -441 -599 -467
-634 -21 -28 -57 -76 -87 -119 -29 -41 -312 -424 -321 -435 -5 -6 -26 -35 -47
-65 -21 -30 -41 -57 -44 -60 -3 -3 -17 -22 -31 -42 -14 -21 -28 -38 -32 -38
-5 0 -8 -4 -8 -10 0 -9 -107 -157 -160 -220 -16 -19 -37 -50 -47 -68 -15 -28
-16 -34 -4 -42 24 -14 43 3 132 124 72 100 456 622 534 726 14 19 82 112 150
205 157 214 178 243 190 258 6 6 28 36 49 66 44 63 45 64 86 112 16 20 30 40
30 43 0 4 22 35 48 69 27 34 61 80 76 102 29 44 64 92 96 134 11 14 57 76 102
136 45 61 88 116 96 124 7 7 11 20 8 28 -3 8 -6 17 -6 19 0 13 -34 1 -51 -18z"/>
<path d="M6976 5301 c-4 -5 11 -41 31 -81 21 -39 48 -92 61 -118 12 -26 27
-54 32 -62 6 -8 19 -35 30 -60 11 -25 24 -52 30 -60 6 -8 15 -26 20 -40 18
-44 27 -55 49 -58 17 -3 21 1 20 25 0 15 -9 42 -20 58 -10 17 -24 41 -30 55
-15 34 -23 50 -41 85 -9 17 -25 50 -37 75 -12 25 -26 52 -31 60 -5 8 -19 38
-31 65 -12 28 -27 53 -33 57 -15 11 -44 10 -50 -1z"/>
<path d="M6246 5275 c-9 -13 -16 -28 -16 -33 0 -13 -69 -144 -86 -163 -8 -8
-14 -20 -14 -26 0 -11 -30 -73 -42 -88 -5 -5 -28 -48 -52 -95 -24 -47 -65
-125 -91 -175 -27 -49 -73 -137 -103 -195 -29 -57 -62 -117 -73 -131 -10 -15
-19 -32 -19 -38 0 -6 -17 -41 -37 -78 -41 -75 -81 -150 -162 -305 -30 -57 -72
-134 -93 -173 -20 -38 -42 -80 -47 -92 -5 -11 -15 -24 -20 -28 -16 -9 -13 -62
4 -69 22 -8 41 16 91 117 26 51 57 112 69 136 13 24 26 51 29 60 3 9 14 30 24
46 11 17 41 73 69 125 27 52 54 104 60 115 6 11 16 31 22 45 6 14 27 52 45 85
31 54 50 93 77 150 5 11 18 34 28 51 18 29 93 174 243 464 33 63 64 119 69
125 5 5 9 17 9 26 0 10 16 41 35 70 39 60 46 99 16 99 -10 0 -26 -11 -35 -25z"/>
<path d="M6336 5223 c-9 -26 -23 -61 -30 -78 -8 -16 -24 -59 -37 -95 -12 -36
-26 -69 -31 -74 -4 -6 -8 -18 -8 -28 0 -10 -9 -35 -20 -55 -11 -21 -20 -43
-20 -49 0 -7 -7 -25 -15 -40 -8 -16 -15 -36 -15 -44 0 -8 -7 -24 -15 -34 -8
-11 -15 -29 -15 -41 0 -12 -4 -25 -9 -31 -5 -5 -14 -25 -20 -44 -11 -38 -61
-178 -79 -223 -7 -16 -12 -32 -12 -37 0 -4 -7 -21 -15 -36 -8 -16 -15 -36 -15
-44 0 -9 -4 -20 -9 -25 -5 -6 -21 -45 -35 -88 -27 -78 -37 -105 -62 -164 -8
-17 -14 -36 -14 -42 0 -6 -6 -25 -14 -43 -8 -18 -21 -49 -30 -70 -9 -20 -16
-43 -16 -52 0 -8 -11 -39 -24 -68 -13 -29 -27 -69 -30 -89 -4 -21 -13 -42 -21
-49 -8 -7 -15 -19 -15 -27 0 -18 -31 -115 -41 -128 -4 -5 -17 -39 -29 -75 -12
-36 -28 -77 -36 -92 -8 -14 -14 -35 -14 -46 0 -12 -4 -23 -9 -27 -5 -3 -12
-19 -16 -36 -4 -17 -13 -42 -21 -57 -8 -15 -14 -34 -14 -43 0 -8 -4 -19 -9
-25 -5 -5 -14 -25 -19 -44 -6 -19 -25 -73 -42 -120 -18 -47 -45 -120 -60 -164
-16 -43 -33 -83 -39 -89 -16 -16 -13 -57 5 -64 21 -8 53 26 64 68 4 19 18 59
30 89 11 30 30 82 41 115 11 33 25 68 30 79 6 10 21 50 34 90 22 69 33 96 61
163 8 17 14 40 14 50 0 10 4 23 8 29 10 11 52 122 94 249 11 33 25 71 32 85 7
14 21 52 31 85 10 33 24 69 30 80 7 11 20 47 30 80 10 33 24 69 31 80 8 11 14
29 14 42 0 12 5 25 10 28 6 3 10 14 10 23 1 9 9 35 20 57 11 22 19 48 20 57 0
9 4 19 9 23 5 3 13 20 17 38 6 29 24 77 44 117 4 9 11 31 15 50 4 19 11 40 16
46 5 6 20 44 34 85 21 63 52 150 121 344 8 22 21 54 29 72 8 17 15 35 15 40 0
12 88 244 106 278 19 36 15 79 -7 83 -11 2 -21 -12 -33 -45z"/>
<path d="M6825 5220 c-6 -19 11 -104 40 -205 16 -54 31 -122 45 -198 5 -26 13
-62 19 -80 13 -44 30 -113 41 -167 6 -25 14 -54 19 -65 5 -11 14 -45 20 -75
11 -56 26 -122 56 -240 9 -36 21 -89 26 -119 5 -30 12 -58 16 -63 6 -10 29
-105 42 -175 4 -23 12 -48 18 -55 6 -7 14 -38 18 -68 4 -30 11 -71 15 -90 5
-19 12 -47 15 -62 4 -23 11 -28 35 -28 36 0 45 13 28 42 -15 28 -47 144 -47
176 -1 13 -8 38 -16 55 -8 18 -19 57 -24 87 -5 30 -17 84 -26 120 -10 36 -23
92 -30 125 -7 33 -21 87 -30 120 -9 33 -20 80 -25 105 -11 57 -39 170 -47 190
-4 8 -12 40 -19 70 -7 30 -19 82 -27 115 -30 118 -47 191 -58 245 -6 30 -14
60 -19 65 -4 6 -11 37 -15 70 -13 102 -52 161 -70 105z"/>
<path d="M6478 5224 c-5 -4 -8 -21 -8 -38 0 -17 -5 -47 -11 -66 -12 -38 -34
-141 -51 -235 -5 -33 -14 -69 -19 -80 -9 -21 -19 -62 -44 -200 -8 -44 -22
-111 -30 -150 -9 -38 -22 -101 -29 -140 -8 -38 -22 -104 -31 -145 -9 -41 -20
-105 -25 -142 -5 -37 -14 -77 -20 -88 -7 -12 -16 -47 -21 -79 -4 -31 -15 -87
-24 -126 -8 -38 -15 -73 -15 -76 0 -13 39 -17 48 -5 13 16 30 92 37 163 3 35
12 75 20 90 8 16 15 36 15 46 0 22 39 218 45 228 3 4 9 35 15 70 5 35 17 98
26 139 24 119 43 220 54 290 6 36 13 72 16 80 4 8 12 47 20 85 16 86 38 193
55 260 11 47 12 48 21 25 6 -17 4 -72 -6 -165 -9 -77 -21 -198 -27 -270 -6
-71 -17 -197 -24 -280 -8 -82 -19 -213 -25 -290 -6 -77 -15 -183 -20 -235 -6
-52 -13 -151 -16 -220 -3 -69 -10 -154 -15 -190 -5 -36 -14 -128 -19 -205 -19
-294 -31 -443 -40 -530 -6 -49 -15 -153 -20 -230 -5 -77 -14 -175 -21 -218
-12 -84 -5 -107 32 -107 24 0 26 12 39 210 12 200 27 389 41 530 6 58 14 166
19 240 11 171 28 375 41 510 6 58 14 168 19 245 15 235 38 519 44 545 4 14 11
105 16 203 6 97 15 257 20 354 6 97 6 181 2 185 -12 12 -76 21 -84 12z"/>
<path d="M6707 5206 c-6 -16 4 -183 28 -446 9 -96 20 -252 24 -346 4 -93 11
-175 15 -182 4 -7 19 -12 33 -12 l26 0 -7 83 c-3 45 -10 147 -15 227 -5 80
-14 181 -20 225 -10 75 -28 249 -40 395 -5 49 -10 66 -22 68 -9 2 -19 -4 -22
-12z"/>
<path d="M4340 5198 c-14 -5 -38 -16 -55 -23 -16 -7 -52 -20 -80 -30 -27 -9
-75 -26 -105 -37 -80 -30 -106 -39 -225 -80 -33 -11 -78 -29 -101 -39 -23 -11
-48 -19 -57 -19 -9 0 -42 -11 -73 -25 -31 -14 -63 -25 -71 -25 -8 0 -29 -6
-46 -14 -18 -8 -56 -22 -85 -32 -60 -21 -75 -34 -66 -58 5 -14 14 -16 48 -11
22 4 47 12 54 18 12 9 41 20 232 87 36 12 83 31 106 41 23 11 47 19 55 19 17
0 105 33 115 43 4 4 16 7 27 7 10 0 33 6 50 14 77 32 94 39 122 47 35 9 111
36 140 48 11 5 32 12 48 15 22 5 27 12 27 36 0 33 -14 37 -60 18z"/>
<path d="M5034 4808 c-17 -13 -67 -52 -110 -86 -44 -35 -94 -76 -113 -90 -19
-15 -65 -52 -102 -82 -68 -54 -167 -133 -198 -158 -79 -61 -147 -116 -151
-121 -3 -3 -24 -19 -47 -35 -90 -60 -118 -106 -65 -106 17 0 42 13 67 36 22
20 56 48 75 63 28 21 241 190 302 240 7 5 29 23 48 39 19 15 63 50 98 78 35
27 80 63 101 79 21 17 64 49 95 73 42 32 56 49 54 64 -4 30 -19 32 -54 6z"/>
<path d="M9464 4775 c-8 -21 2 -44 23 -51 10 -3 46 -19 80 -35 35 -16 92 -43
128 -60 35 -16 95 -44 132 -61 38 -17 91 -42 118 -54 133 -60 211 -97 225
-105 8 -5 22 -12 30 -15 8 -3 24 -10 35 -15 11 -5 31 -13 45 -19 14 -5 32 -14
40 -19 8 -5 31 -16 50 -24 19 -9 65 -30 102 -47 37 -17 98 -45 135 -62 37 -17
75 -35 83 -40 8 -4 33 -16 55 -25 22 -9 68 -31 101 -48 80 -42 108 -49 124
-30 21 25 20 25 -155 106 -78 36 -173 79 -257 118 -37 18 -98 46 -135 63 -38
17 -81 38 -98 46 -87 45 -189 90 -217 97 -15 4 -32 13 -39 21 -6 8 -16 14 -22
14 -5 0 -46 18 -91 39 -107 51 -338 159 -376 175 -8 3 -28 15 -45 25 -37 24
-64 26 -71 6z"/>
<path d="M8616 4761 c-13 -14 -14 -20 -4 -29 29 -23 361 -242 369 -242 4 0 14
-6 21 -13 7 -7 31 -24 53 -37 21 -13 47 -31 56 -40 9 -8 47 -33 84 -55 37 -22
72 -45 79 -50 6 -6 29 -22 51 -35 22 -13 42 -27 45 -30 3 -3 23 -17 45 -30 22
-13 42 -26 45 -29 13 -14 70 -51 80 -51 5 0 10 -4 10 -8 0 -5 10 -14 23 -21
40 -21 54 -31 675 -444 336 -225 615 -413 618 -418 3 -5 16 -9 30 -9 18 0 24
5 24 21 0 21 -36 58 -57 59 -6 0 -13 3 -15 8 -5 11 -66 52 -78 52 -5 0 -10 3
-10 8 0 4 -17 16 -37 27 -20 11 -41 25 -47 30 -11 10 -113 81 -145 100 -39 24
-126 80 -131 86 -3 3 -23 16 -45 29 -22 13 -42 27 -45 30 -3 3 -23 17 -45 30
-22 13 -44 28 -50 32 -8 7 -370 246 -427 283 -9 6 -62 42 -119 80 -57 39 -111
75 -121 80 -9 6 -52 34 -95 62 -43 29 -85 57 -93 63 -8 5 -51 35 -95 65 -44
30 -96 63 -116 74 -19 11 -41 27 -48 35 -8 9 -19 16 -27 16 -7 0 -19 6 -26 13
-13 13 -169 119 -218 149 -26 15 -95 65 -152 108 -32 25 -40 25 -62 1z"/>
<path d="M7250 4740 c0 -11 11 -37 24 -58 13 -21 33 -58 45 -82 12 -25 25 -52
30 -60 24 -42 221 -447 221 -456 0 -5 13 -24 29 -43 28 -35 51 -36 51 -2 0 9
-79 176 -175 369 -160 320 -178 352 -200 352 -18 0 -25 -5 -25 -20z"/>
<path d="M3485 4219 c-33 -22 -91 -59 -130 -81 -38 -22 -95 -55 -125 -73 -30
-19 -73 -43 -95 -54 -43 -22 -76 -41 -140 -82 -22 -14 -47 -29 -55 -32 -8 -4
-28 -16 -45 -27 -16 -11 -39 -24 -51 -29 -18 -8 -132 -74 -174 -101 -16 -11
-85 -50 -159 -91 -94 -52 -119 -70 -124 -89 -10 -38 31 -42 77 -7 17 13 38 27
46 30 8 4 29 16 45 27 17 11 39 24 50 29 11 5 95 54 186 109 92 55 176 103
188 107 11 3 21 11 21 16 0 5 5 9 11 9 12 0 180 99 189 110 3 4 16 11 30 15
14 4 39 17 55 30 17 12 40 25 53 29 12 4 22 12 22 17 0 5 5 9 11 9 6 0 44 20
84 44 39 24 81 47 92 50 25 8 37 44 21 63 -15 18 -16 18 -83 -28z"/>
<path d="M6800 4124 c-10 -11 -10 -43 -1 -141 7 -71 16 -195 21 -278 5 -82 14
-181 19 -220 6 -38 13 -131 16 -205 7 -154 17 -200 46 -200 29 0 32 21 20 128
-7 53 -16 162 -21 242 -5 80 -14 172 -20 206 -5 33 -10 93 -10 132 0 66 -14
236 -26 309 -5 35 -27 49 -44 27z"/>
<path d="M4109 4072 c-15 -9 -51 -37 -80 -61 -68 -55 -102 -82 -214 -169 -49
-39 -123 -97 -163 -129 -137 -110 -160 -128 -188 -150 -56 -43 -359 -285 -379
-301 -11 -10 -36 -28 -55 -42 -41 -28 -50 -39 -50 -62 0 -12 8 -18 23 -18 20
0 49 21 157 114 14 11 57 46 95 76 39 30 75 59 81 65 7 5 35 28 64 50 29 22
64 50 78 63 14 12 28 22 31 22 3 0 17 10 31 23 14 12 57 47 95 77 39 30 72 57
75 60 3 3 46 37 95 75 50 38 92 72 95 76 3 3 28 24 56 45 28 21 75 58 105 81
30 23 66 52 82 63 54 42 23 81 -34 42z"/>
<path d="M8603 4053 c-19 -7 -16 -36 5 -54 9 -8 71 -73 137 -144 66 -70 126
-134 133 -142 7 -7 25 -13 38 -13 20 0 25 5 22 19 -2 16 -290 320 -316 334 -4
3 -13 2 -19 0z"/>
<path d="M11037 4043 c-25 -24 -15 -31 338 -193 33 -15 89 -41 125 -58 36 -16
94 -43 130 -60 36 -16 97 -44 135 -62 39 -18 97 -45 130 -60 33 -16 92 -43
130 -60 39 -18 77 -36 85 -41 26 -15 102 -49 110 -49 14 0 20 31 10 50 -5 10
-25 21 -44 24 -19 4 -39 13 -46 21 -7 8 -18 15 -26 15 -7 0 -39 13 -71 29 -55
27 -118 57 -258 122 -33 15 -105 49 -160 75 -55 25 -129 60 -165 76 -36 17
-92 43 -125 59 -163 76 -192 89 -202 89 -6 0 -16 7 -23 15 -13 15 -61 21 -73
8z"/>
<path d="M7667 3953 c-12 -11 -7 -47 9 -78 24 -44 177 -351 285 -572 52 -105
100 -194 107 -197 6 -3 19 -3 28 1 17 6 11 57 -10 83 -7 8 -97 185 -201 393
-103 207 -193 377 -200 377 -6 0 -15 -3 -18 -7z"/>
<path d="M8982 3626 c3 -20 214 -247 525 -563 23 -24 46 -49 50 -57 4 -8 19
-16 33 -18 52 -7 33 30 -77 144 -60 62 -142 149 -183 192 -41 44 -109 114
-150 156 -41 42 -93 97 -115 123 -46 53 -89 65 -83 23z"/>
<path d="M6126 3538 c-8 -18 -17 -60 -21 -93 -4 -33 -11 -68 -16 -77 -5 -9
-13 -43 -19 -75 -16 -100 -37 -197 -50 -230 -15 -42 -10 -87 12 -91 22 -4 43
38 56 113 23 134 34 192 48 239 8 26 14 57 14 68 0 10 7 41 16 67 19 60 16
105 -9 109 -12 2 -22 -7 -31 -30z"/>
<path d="M5313 3498 c-14 -17 -53 -104 -53 -117 0 -6 -4 -11 -8 -11 -5 0 -19
-24 -33 -52 -13 -29 -27 -55 -30 -58 -3 -3 -18 -30 -33 -60 -15 -30 -31 -62
-37 -70 -5 -8 -19 -35 -30 -60 -11 -25 -36 -72 -54 -105 -18 -33 -60 -112 -93
-175 -87 -168 -112 -214 -123 -225 -5 -5 -9 -22 -9 -38 0 -24 4 -28 22 -25 17
2 34 24 67 88 24 47 70 135 102 195 32 61 78 148 102 195 38 73 121 230 164
310 7 14 13 31 13 38 0 6 4 12 9 12 5 0 13 10 17 23 3 12 20 42 36 66 16 24
28 51 26 60 -4 20 -41 26 -55 9z"/>
<path d="M7259 3439 c-14 -8 -7 -46 26 -154 6 -22 20 -76 30 -120 9 -44 23
-100 30 -125 12 -40 27 -99 80 -325 8 -33 20 -85 26 -115 6 -30 15 -59 20 -65
5 -5 9 -21 9 -36 0 -15 6 -49 14 -75 14 -48 21 -77 52 -199 8 -33 19 -83 23
-112 5 -28 12 -56 15 -62 10 -15 46 -162 46 -185 0 -12 7 -33 14 -48 8 -16 18
-49 21 -75 4 -27 11 -61 15 -78 4 -16 15 -55 23 -85 17 -61 34 -135 46 -195 4
-22 12 -56 19 -75 11 -36 27 -104 41 -175 20 -103 44 -147 72 -129 13 8 11 71
-3 97 -11 20 -26 85 -48 199 -5 27 -12 53 -15 59 -7 10 -26 90 -46 189 -5 25
-13 54 -18 65 -4 11 -16 56 -25 100 -10 44 -22 94 -28 110 -6 17 -15 53 -20
80 -6 28 -19 84 -30 125 -11 41 -24 99 -29 129 -6 30 -12 58 -16 63 -3 6 -12
37 -19 71 -8 34 -21 91 -30 127 -8 36 -19 85 -24 110 -6 25 -13 52 -17 60 -7
16 -28 103 -43 182 -5 27 -12 53 -16 59 -4 7 -13 39 -20 73 -7 34 -19 88 -27
121 -9 33 -23 89 -32 125 -9 36 -20 83 -24 105 -4 22 -13 56 -19 75 -6 19 -14
51 -17 71 -6 38 -30 55 -56 38z"/>
<path d="M4513 3172 c-6 -4 -23 -24 -37 -45 -14 -21 -31 -43 -36 -50 -6 -7
-40 -52 -75 -102 -36 -49 -71 -97 -79 -105 -7 -8 -18 -25 -25 -37 -6 -12 -18
-29 -28 -38 -14 -14 -49 -62 -127 -170 -15 -21 -266 -364 -313 -428 -15 -21
-35 -46 -44 -55 -9 -9 -25 -30 -35 -47 -10 -16 -22 -34 -27 -40 -20 -25 -262
-354 -283 -385 -41 -59 -100 -139 -120 -163 -11 -12 -34 -43 -51 -67 -17 -25
-42 -58 -56 -74 -39 -45 -52 -75 -40 -87 18 -18 52 0 81 44 15 23 33 48 40 56
8 8 25 30 38 50 13 20 34 49 46 66 13 16 62 84 110 150 49 66 92 125 97 130 4
6 25 35 46 65 21 30 42 59 47 65 4 5 32 42 60 80 28 39 54 72 57 75 4 3 17 22
31 42 14 21 28 38 33 38 4 0 7 4 7 10 0 8 110 163 143 200 8 8 28 36 45 63 17
26 36 53 42 60 6 6 67 89 135 182 69 94 128 175 133 180 4 6 19 26 32 45 13
19 29 40 36 45 6 6 27 35 47 65 20 30 48 69 63 85 49 56 58 73 44 90 -14 17
-20 18 -37 7z"/>
<path d="M2869 3094 c-7 -9 -45 -40 -84 -69 -38 -28 -77 -58 -85 -66 -8 -8
-43 -36 -77 -62 -34 -26 -68 -53 -75 -60 -7 -7 -44 -37 -83 -66 -38 -30 -72
-56 -75 -60 -3 -4 -36 -31 -75 -61 -38 -30 -74 -58 -80 -62 -43 -34 -99 -77
-126 -98 -18 -14 -54 -42 -79 -63 -25 -20 -49 -41 -55 -45 -34 -26 -193 -150
-207 -162 -21 -17 -24 -49 -5 -51 28 -3 42 5 101 54 34 29 80 66 101 84 154
121 274 217 299 236 51 40 111 87 125 98 7 7 41 34 75 60 33 27 66 52 71 57 6
4 42 32 80 62 39 30 118 93 177 140 58 47 113 90 121 95 9 6 17 19 19 30 4 26
-43 33 -63 9z"/>
<path d="M8117 3043 c-17 -16 5 -69 130 -308 6 -11 27 -55 48 -97 25 -55 42
-78 55 -78 31 0 39 22 19 55 -27 45 -59 110 -59 120 0 5 -6 16 -13 24 -7 9
-22 36 -32 61 -10 25 -24 52 -30 60 -6 8 -20 35 -30 60 -20 48 -62 110 -75
110 -3 0 -10 -3 -13 -7z"/>
<path d="M6891 2991 c-12 -8 -13 -26 -2 -128 7 -65 17 -175 21 -245 4 -69 13
-166 19 -215 11 -86 24 -251 41 -528 5 -77 14 -167 19 -200 10 -58 22 -213 41
-530 5 -82 12 -159 16 -170 6 -23 29 -309 44 -555 5 -91 12 -172 16 -180 3 -8
7 -42 10 -75 5 -65 14 -81 40 -71 15 6 16 18 10 119 -3 61 -11 148 -16 192 -5
44 -15 148 -20 230 -19 264 -28 378 -39 485 -12 120 -29 328 -41 512 -4 69
-13 166 -19 215 -11 89 -25 263 -41 513 -5 74 -14 169 -19 210 -6 41 -15 148
-19 237 -10 180 -20 210 -61 184z"/>
<path d="M5985 2863 c-3 -16 -10 -41 -15 -58 -5 -16 -12 -48 -15 -70 -6 -39
-21 -109 -50 -245 -7 -36 -21 -101 -30 -145 -37 -188 -47 -233 -62 -278 -17
-53 -12 -77 15 -77 29 0 39 19 51 90 13 83 30 167 42 205 5 17 13 57 18 90 14
81 31 164 42 200 5 17 13 57 18 90 6 33 17 90 26 128 19 74 15 97 -14 97 -14
0 -22 -8 -26 -27z"/>
<path d="M5317 2462 c-9 -10 -20 -33 -23 -50 -4 -18 -11 -35 -15 -38 -5 -3 -9
-15 -9 -26 0 -11 -8 -39 -19 -62 -10 -23 -27 -66 -36 -96 -10 -30 -24 -64 -32
-75 -7 -11 -13 -27 -13 -37 0 -9 -7 -34 -16 -55 -29 -67 -33 -77 -55 -143 -11
-36 -27 -78 -34 -95 -7 -16 -20 -52 -30 -80 -10 -27 -24 -64 -31 -82 -8 -17
-14 -38 -14 -46 0 -9 -4 -18 -9 -22 -5 -3 -13 -20 -17 -38 -6 -30 -11 -43 -48
-129 -9 -20 -16 -45 -16 -55 0 -11 -3 -23 -6 -26 -9 -9 -54 -120 -54 -133 0
-6 -11 -37 -25 -68 -14 -31 -25 -64 -25 -74 0 -9 -7 -30 -16 -47 -15 -29 -36
-83 -93 -245 -15 -41 -32 -85 -39 -97 -7 -12 -12 -31 -12 -42 0 -11 -4 -22 -9
-26 -5 -3 -12 -19 -16 -36 -4 -17 -13 -42 -21 -57 -8 -15 -14 -35 -14 -44 0
-9 -4 -19 -9 -23 -5 -3 -13 -20 -16 -38 -4 -17 -13 -43 -20 -57 -35 -70 -39
-80 -28 -91 6 -6 21 -9 33 -7 23 3 24 6 69 138 13 36 29 79 37 97 8 17 14 36
14 42 0 6 4 19 10 29 5 9 21 49 34 87 37 105 48 137 61 170 24 60 34 91 40
122 3 17 13 37 21 44 8 6 14 19 14 28 0 10 12 46 26 82 14 35 34 91 45 124 11
33 24 68 29 77 6 10 19 46 31 80 11 35 27 77 35 95 8 17 14 38 14 46 0 9 4 18
9 22 5 3 13 20 17 38 6 30 11 43 48 129 9 20 16 45 16 56 0 12 4 23 9 26 4 3
18 36 30 73 13 37 29 82 37 100 8 17 14 35 14 41 0 5 7 23 15 38 8 16 15 37
15 46 0 9 8 31 17 50 30 61 33 68 33 86 0 9 9 34 20 55 11 20 20 46 20 56 0
11 4 22 9 26 5 3 12 18 16 34 3 16 13 35 21 42 17 14 18 51 2 67 -16 16 -22
15 -41 -6z"/>
<path d="M4757 2425 c-9 -8 -34 -50 -56 -93 -22 -42 -58 -111 -79 -152 -22
-41 -60 -113 -85 -160 -132 -253 -208 -393 -218 -405 -10 -10 -12 -59 -3 -68
12 -12 46 14 60 46 8 18 43 86 79 152 35 66 89 170 121 230 93 180 110 212
132 248 11 19 23 45 27 58 5 13 18 38 31 54 31 41 39 78 21 94 -12 9 -18 9
-30 -4z"/>
<path d="M6293 2092 c-10 -7 -26 -128 -43 -322 -6 -63 -11 -123 -13 -134 -3
-22 24 -42 47 -33 13 5 16 22 16 84 0 43 5 96 10 118 6 22 13 94 16 161 6 102
5 122 -8 126 -8 4 -19 3 -25 0z"/>
<path d="M5775 1873 c-4 -21 -10 -51 -15 -68 -4 -16 -11 -59 -14 -94 -3 -35
-10 -69 -16 -76 -5 -6 -14 -40 -20 -76 -5 -35 -17 -93 -25 -129 -8 -36 -19
-90 -26 -120 -6 -30 -17 -85 -25 -121 -8 -37 -14 -76 -14 -87 0 -11 -7 -36
-15 -55 -8 -20 -15 -52 -15 -70 0 -19 -7 -51 -16 -72 -20 -49 -15 -119 8 -123
22 -4 36 28 49 113 6 33 16 87 24 120 32 144 37 167 45 217 5 29 16 82 25 118
8 36 20 98 26 139 5 41 15 83 21 94 6 11 14 47 19 81 4 34 15 90 24 126 31
126 31 120 -3 120 -28 0 -32 -4 -37 -37z"/>
</g>
</svg>
