<?xml version="1.0" standalone="no"?>
<!DOCTYPE svg PUBLIC "-//W3C//DTD SVG 20010904//EN"
 "http://www.w3.org/TR/2001/REC-SVG-20010904/DTD/svg10.dtd">
<svg version="1.0" xmlns="http://www.w3.org/2000/svg"
 width="300.000000pt" height="298.000000pt" viewBox="0 0 300.000000 298.000000"
 preserveAspectRatio="xMidYMid meet">
<metadata>
Created by potrace 1.10, written by Peter Selinger 2001-2011
</metadata>
<g transform="translate(0.000000,298.000000) scale(0.100000,-0.100000)"
fill="#000000" stroke="none">
<path d="M1594 2892 c-8 -4 -20 -108 -33 -282 -12 -151 -23 -287 -26 -302 -3
-22 -1 -28 13 -28 16 0 19 18 30 163 37 484 37 462 16 449z"/>
<path d="M1160 2843 c1 -26 38 -127 48 -131 15 -5 15 8 -2 78 -8 37 -18 56
-29 58 -9 2 -17 0 -17 -5z"/>
<path d="M1877 2509 c-71 -193 -96 -274 -88 -282 6 -6 12 -9 14 -6 4 4 197
528 200 543 1 6 -5 11 -13 13 -11 2 -39 -64 -113 -268z"/>
<path d="M1404 2688 c3 -13 6 -42 6 -65 0 -35 3 -43 18 -43 17 0 18 7 14 58
-4 53 -14 71 -36 72 -4 0 -6 -10 -2 -22z"/>
<path d="M510 2567 c0 -20 47 -60 60 -52 8 5 3 16 -16 36 -30 32 -44 36 -44
16z"/>
<path d="M1992 2384 c-92 -174 -111 -225 -85 -224 4 1 22 31 40 68 17 37 64
127 102 200 64 120 75 152 53 152 -4 0 -53 -88 -110 -196z"/>
<path d="M1243 2562 c-16 -10 55 -302 74 -302 7 0 13 4 13 9 0 13 -68 292 -72
296 -2 2 -9 1 -15 -3z"/>
<path d="M993 2508 c-15 -19 137 -320 155 -309 10 6 -6 46 -63 162 -42 84 -77
155 -79 156 -2 2 -8 -2 -13 -9z"/>
<path d="M1726 2498 c-7 -21 -46 -218 -46 -228 0 -6 6 -10 14 -10 10 0 19 20
26 58 6 31 18 85 26 120 8 35 14 65 14 68 0 10 -31 3 -34 -8z"/>
<path d="M622 2457 c-13 -16 342 -387 357 -372 11 11 -10 35 -220 252 -93 97
-130 129 -137 120z"/>
<path d="M1430 2407 c0 -66 14 -127 28 -127 12 0 14 10 8 53 -3 28 -6 59 -6
68 0 9 -7 19 -15 23 -11 4 -15 -1 -15 -17z"/>
<path d="M2084 2294 c-54 -74 -103 -142 -109 -149 -6 -10 -6 -18 1 -25 8 -8
22 3 50 42 21 29 71 97 111 151 65 88 79 117 54 117 -4 0 -52 -61 -107 -136z"/>
<path d="M2368 2207 c-191 -152 -263 -215 -256 -224 7 -8 65 33 212 150 111
89 232 185 269 212 61 46 75 65 51 71 -5 2 -129 -93 -276 -209z"/>
<path d="M390 2268 c0 -17 164 -130 174 -121 13 14 3 24 -69 73 -89 60 -105
67 -105 48z"/>
<path d="M379 2054 c-9 -11 -7 -15 7 -21 11 -3 109 -49 219 -100 110 -51 205
-91 212 -89 15 6 18 26 4 26 -6 0 -104 45 -220 99 -175 82 -212 97 -222 85z"/>
<path d="M716 2055 c-4 -10 18 -31 68 -64 67 -46 86 -52 86 -30 0 5 -33 31
-74 58 -57 39 -75 47 -80 36z"/>
<path d="M1546 2039 c-3 -17 -6 -209 -6 -426 l0 -394 -22 15 c-45 32 -129 10
-201 -54 -31 -27 -37 -39 -37 -71 0 -49 24 -64 92 -56 50 6 155 56 182 86 14
15 16 72 16 425 0 259 4 405 10 401 6 -3 10 -12 10 -20 0 -8 21 -30 47 -50 64
-49 85 -87 90 -165 l5 -65 -71 69 c-39 39 -73 67 -77 63 -9 -9 39 -71 75 -96
43 -31 65 -104 50 -165 -6 -26 -9 -49 -6 -52 25 -25 57 88 57 199 0 109 -20
159 -88 216 -28 24 -56 57 -62 74 -40 104 -53 118 -64 66z m-32 -829 c30 -11
34 -40 8 -63 -10 -9 -44 -28 -76 -42 -71 -32 -129 -31 -134 1 -4 28 30 68 80
93 47 23 83 26 122 11z"/>
<path d="M2217 1917 c-32 -20 -44 -34 -38 -40 12 -12 101 32 101 50 0 22 -15
20 -63 -10z"/>
<path d="M2548 1837 c-181 -66 -308 -117 -308 -124 0 -7 4 -13 9 -13 4 0 147
50 316 110 170 61 310 110 312 110 2 0 3 7 3 15 0 8 -6 15 -12 14 -7 0 -151
-51 -320 -112z"/>
<path d="M90 1850 c0 -22 215 -79 233 -61 6 6 9 12 6 14 -2 2 -57 17 -121 33
-105 27 -118 28 -118 14z"/>
<path d="M405 1769 c-4 -6 -5 -12 -4 -13 2 -2 80 -22 173 -45 116 -29 172 -39
179 -32 6 6 9 12 6 14 -5 4 -331 88 -341 87 -4 0 -10 -5 -13 -11z"/>
<path d="M2480 1729 c-47 -10 -118 -26 -157 -35 -52 -11 -73 -20 -73 -31 0
-11 7 -14 23 -10 12 3 81 18 152 32 141 28 175 39 175 55 0 13 -19 12 -120
-11z"/>
<path d="M430 1495 c0 -13 23 -15 150 -15 127 0 150 2 150 15 0 13 -23 15
-150 15 -127 0 -150 -2 -150 -15z"/>
<path d="M2270 1495 c0 -12 16 -15 80 -15 64 0 80 3 80 15 0 12 -16 15 -80 15
-64 0 -80 -3 -80 -15z"/>
<path d="M2580 1495 c10 -12 37 -15 126 -15 95 0 114 3 114 15 0 13 -21 15
-126 15 -111 0 -125 -2 -114 -15z"/>
<path d="M672 1357 c-39 -8 -52 -15 -50 -26 2 -9 5 -16 8 -15 75 11 130 27
130 40 0 16 -11 16 -88 1z"/>
<path d="M2252 1308 c-17 -17 -15 -28 6 -28 9 0 105 -23 212 -50 118 -29 199
-45 204 -39 5 5 7 11 4 14 -3 3 -95 29 -204 56 -109 28 -201 52 -205 54 -3 2
-11 -1 -17 -7z"/>
<path d="M2210 1203 c1 -13 26 -30 83 -55 45 -21 129 -60 187 -87 71 -33 107
-45 112 -37 4 6 4 14 0 17 -4 3 -83 41 -177 84 -93 43 -174 82 -179 86 -16 14
-26 10 -26 -8z"/>
<path d="M585 1134 c-110 -40 -205 -74 -212 -74 -16 0 -23 -14 -14 -28 5 -9
22 -6 67 11 32 13 132 50 221 81 120 43 160 61 156 72 -3 8 -8 14 -12 13 -3
-1 -96 -34 -206 -75z"/>
<path d="M2840 1157 c0 -20 8 -25 58 -33 34 -5 42 -4 42 8 0 10 -13 18 -32 21
-18 3 -41 8 -50 12 -13 5 -18 2 -18 -8z"/>
<path d="M828 1106 c-10 -7 -144 -87 -299 -177 -257 -150 -301 -180 -286 -195
2 -3 132 70 288 162 156 92 294 171 307 177 22 10 29 31 14 41 -4 2 -15 -1
-24 -8z"/>
<path d="M2145 1099 c-4 -6 -5 -12 -4 -13 2 -2 25 -17 51 -34 39 -27 47 -29
52 -15 4 9 5 17 4 17 -2 1 -22 14 -45 29 -48 31 -49 31 -58 16z"/>
<path d="M820 979 c-100 -80 -106 -87 -95 -98 11 -11 190 124 190 142 0 24
-24 13 -95 -44z"/>
<path d="M2051 967 c-6 -9 16 -38 74 -99 60 -61 87 -83 94 -75 6 9 -16 38 -74
99 -60 61 -87 83 -94 75z"/>
<path d="M2370 947 c0 -8 78 -66 174 -130 144 -96 175 -113 181 -99 3 9 2 18
-3 20 -5 1 -82 52 -172 112 -90 61 -167 110 -172 110 -4 0 -8 -6 -8 -13z"/>
<path d="M936 729 c-87 -117 -115 -164 -107 -172 6 -6 12 -9 14 -6 2 2 48 65
102 139 54 74 106 144 117 156 15 17 16 23 5 32 -10 9 -38 -22 -131 -149z"/>
<path d="M1831 821 c-10 -7 -8 -17 8 -50 12 -22 26 -41 31 -41 20 0 19 20 -3
58 -16 28 -27 38 -36 33z"/>
<path d="M1116 712 c-35 -67 -52 -110 -46 -116 12 -12 8 -18 74 105 45 85 54
108 42 112 -12 5 -30 -22 -70 -101z"/>
<path d="M1212 698 c-16 -46 -33 -91 -37 -100 -5 -13 -2 -18 11 -18 15 0 26
21 52 93 37 107 37 107 18 107 -8 0 -26 -34 -44 -82z"/>
<path d="M1356 718 c-4 -24 -22 -115 -41 -203 -32 -146 -33 -167 -8 -166 9 0
84 382 78 399 -9 25 -23 11 -29 -30z"/>
<path d="M1684 752 c-8 -5 0 -54 24 -154 31 -125 39 -148 55 -148 15 0 17 5
11 23 -4 12 -22 79 -39 149 -17 70 -33 130 -36 132 -3 3 -9 2 -15 -2z"/>
<path d="M1410 723 c0 -26 -38 -500 -44 -550 -5 -36 -3 -43 12 -43 16 0 19 24
35 232 10 128 20 266 24 306 5 63 4 72 -11 72 -9 0 -16 -8 -16 -17z"/>
<path d="M1573 673 c4 -38 7 -87 7 -111 0 -36 3 -43 18 -40 9 2 17 8 17 13 -1
6 -5 54 -9 108 -7 77 -12 97 -24 97 -12 0 -14 -11 -9 -67z"/>
<path d="M2325 679 c-7 -11 93 -124 110 -124 21 0 8 25 -43 79 -58 61 -58 61
-67 45z"/>
<path d="M1943 593 c-17 -6 82 -203 102 -203 8 0 15 2 15 5 0 7 -100 205 -103
204 -1 0 -7 -3 -14 -6z"/>
<path d="M1071 311 c-28 -76 -51 -141 -51 -145 0 -18 29 -2 38 22 17 42 92
244 92 247 0 2 -6 5 -14 8 -10 4 -27 -31 -65 -132z"/>
<path d="M895 293 c-33 -65 -35 -75 -19 -80 11 -4 74 105 74 127 0 28 -29 4
-55 -47z"/>
<path d="M1614 322 c-8 -5 -9 -36 -5 -97 5 -72 9 -90 22 -93 15 -3 16 7 12 85
-6 94 -12 116 -29 105z"/>
<path d="M2070 315 c0 -20 63 -125 75 -125 20 0 20 1 -15 70 -17 33 -37 60
-45 60 -8 0 -15 -2 -15 -5z"/>
<path d="M1784 283 c4 -9 11 -37 17 -62 16 -72 19 -81 36 -81 11 0 14 6 9 23
-3 12 -11 48 -18 80 -10 45 -16 57 -31 57 -14 0 -17 -5 -13 -17z"/>
</g>
</svg>
