 <svg  version="1.0" xmlns="http://www.w3.org/2000/svg"  width="300.000000pt" height="298.000000pt" viewBox="0 0 300.000000 298.000000"  preserveAspectRatio="xMidYMid meet">  <g transform="translate(0.000000,298.000000) scale(0.100000,-0.100000)" fill="#000000" stroke="none"> <path d="M1580 2868 c0 -29 -39 -515 -44 -555 -4 -28 -1 -33 15 -33 16 0 19 7 19 43 0 23 7 119 14 212 30 345 30 355 12 355 -10 0 -16 -8 -16 -22z"/> <path d="M1164 2833 c3 -10 10 -39 17 -65 13 -55 46 -79 35 -26 -15 77 -27 108 -42 108 -10 0 -14 -6 -10 -17z"/> <path d="M1970 2770 c0 -6 -43 -128 -96 -271 -69 -187 -93 -264 -85 -272 6 -6 12 -9 14 -6 2 2 47 121 99 264 52 143 99 268 103 278 5 13 2 17 -14 17 -12 0 -21 -5 -21 -10z"/> <path d="M1404 2694 c3 -9 6 -38 6 -65 0 -41 3 -49 18 -49 17 0 18 7 14 58 -4 53 -14 71 -36 72 -4 0 -5 -7 -2 -16z"/> <path d="M510 2569 c0 -6 11 -24 24 -39 17 -21 26 -26 35 -17 8 8 4 18 -16 39 -28 30 -43 35 -43 17z"/> <path d="M2062 2517 c-17 -34 -63 -123 -102 -196 -39 -74 -68 -142 -65 -150 3 -8 9 -11 14 -5 8 9 211 392 211 399 0 1 -6 5 -13 8 -9 3 -25 -17 -45 -56z"/> <path d="M1243 2562 c-16 -10 56 -302 74 -302 7 0 13 4 13 9 0 13 -68 292 -72 296 -2 2 -9 1 -15 -3z"/> <path d="M994 2508 c-13 -19 137 -320 154 -309 10 6 -6 46 -63 162 -42 84 -77 155 -79 156 -2 2 -7 -2 -12 -9z"/> <path d="M1725 2488 c-12 -50 -45 -212 -45 -220 0 -4 6 -8 14 -8 10 0 19 20 26 58 6 31 18 85 26 120 17 77 17 72 -1 72 -8 0 -17 -10 -20 -22z"/> <path d="M622 2457 c-13 -16 343 -387 357 -372 11 11 -14 40 -220 252 -92 95 -130 128 -137 120z"/> <path d="M1430 2407 c0 -66 14 -127 28 -127 12 0 14 10 8 53 -3 28 -6 59 -6 68 0 9 -7 19 -15 23 -11 4 -15 -1 -15 -17z"/> <path d="M2150 2383 c-19 -27 -67 -92 -108 -147 -50 -67 -71 -104 -67 -115 6 -14 10 -12 26 9 200 266 221 300 190 300 -4 0 -23 -21 -41 -47z"/> <path d="M2368 2206 c-181 -145 -263 -217 -256 -224 6 -6 96 59 279 205 231 185 286 235 251 233 -4 -1 -127 -97 -274 -214z"/> <path d="M396 2273 c-3 -3 -6 -9 -6 -13 0 -11 167 -119 174 -113 13 14 3 24 -66 71 -94 63 -94 63 -102 55z"/> <path d="M380 2055 c-10 -12 -8 -16 11 -24 22 -8 261 -118 372 -171 39 -19 51 -20 57 -10 6 10 -33 33 -158 90 -92 42 -190 89 -219 103 -44 23 -53 24 -63 12z"/> <path d="M716 2055 c-4 -10 18 -31 68 -64 67 -46 86 -52 86 -30 0 5 -33 31 -74 58 -57 39 -75 47 -80 36z"/> <path d="M1546 2039 c-3 -17 -6 -209 -6 -426 l0 -394 -22 15 c-47 33 -129 12 -198 -50 -33 -30 -40 -43 -40 -75 0 -29 5 -41 22 -50 46 -25 167 10 236 69 l32 27 1 430 c1 392 2 426 16 388 9 -28 31 -56 63 -83 59 -49 82 -102 86 -194 l2 -68 -19 31 c-22 37 -129 144 -136 137 -8 -7 32 -60 68 -90 16 -14 39 -46 50 -72 18 -40 19 -52 10 -91 -11 -44 -8 -68 9 -58 19 12 40 117 40 198 0 109 -20 159 -88 216 -28 24 -56 57 -62 74 -40 104 -53 118 -64 66z m-49 -822 c3 -4 15 -7 25 -7 16 0 19 -6 16 -32 -3 -29 -10 -36 -73 -68 -75 -38 -104 -45 -141 -36 -38 10 -31 46 21 97 24 24 54 45 65 45 11 1 23 3 25 6 6 6 54 2 62 -5z"/> <path d="M2217 1917 c-63 -40 -48 -61 18 -26 47 25 49 27 37 45 -4 7 -23 0 -55 -19z"/> <path d="M2548 1837 c-185 -67 -308 -117 -308 -124 0 -7 4 -13 9 -13 5 0 149 50 320 111 202 73 311 117 311 125 0 8 -6 13 -12 13 -7 -1 -151 -51 -320 -112z"/> <path d="M90 1850 c0 -20 217 -77 234 -60 5 5 8 11 5 13 -2 2 -57 17 -121 33 -103 26 -118 28 -118 14z"/> <path d="M407 1767 c-7 -17 331 -103 346 -88 6 6 9 12 6 14 -4 4 -331 87 -341 87 -3 0 -8 -6 -11 -13z"/> <path d="M2485 1729 c-225 -47 -235 -50 -235 -66 0 -11 7 -14 23 -10 12 3 81 18 152 32 141 28 175 39 175 55 0 13 -7 12 -115 -11z"/> <path d="M430 1495 c0 -13 23 -15 150 -15 127 0 150 2 150 15 0 13 -23 15 -150 15 -127 0 -150 -2 -150 -15z"/> <path d="M2270 1495 c0 -12 16 -15 80 -15 64 0 80 3 80 15 0 12 -16 15 -80 15 -64 0 -80 -3 -80 -15z"/> <path d="M2582 1498 c3 -9 37 -14 122 -16 92 -2 117 0 114 10 -3 9 -37 14 -122 16 -92 2 -117 0 -114 -10z"/> <path d="M680 1357 c-65 -12 -64 -12 -53 -29 7 -12 18 -12 71 0 40 9 62 19 62 28 0 16 -2 16 -80 1z"/> <path d="M2252 1308 c-17 -17 -15 -28 6 -28 9 0 105 -22 212 -49 115 -29 199 -45 204 -40 5 5 8 11 5 13 -3 3 -94 28 -204 56 -109 28 -202 53 -205 55 -4 2 -12 -1 -18 -7z"/> <path d="M2210 1201 c0 -10 8 -21 18 -24 9 -3 95 -41 190 -85 136 -64 172 -77 172 -64 0 12 -36 33 -118 71 -64 30 -150 69 -189 87 -66 30 -73 32 -73 15z"/> <path d="M778 1205 c-3 -4 -335 -124 -415 -150 -7 -2 -10 -11 -7 -20 4 -10 13 -14 23 -9 24 10 423 154 427 154 2 0 1 7 -2 15 -6 15 -16 19 -26 10z"/> <path d="M2840 1157 c0 -20 6 -23 58 -32 33 -5 42 -4 42 8 0 8 -13 17 -32 20 -18 3 -41 8 -50 12 -13 5 -18 2 -18 -8z"/> <path d="M775 1074 c-39 -24 -174 -103 -300 -177 -139 -81 -231 -142 -233 -152 -2 -10 0 -16 5 -14 44 18 612 357 613 366 0 23 -16 19 -85 -23z"/> <path d="M2145 1099 c-4 -6 -5 -12 -4 -13 2 -2 25 -17 51 -34 39 -27 47 -29 52 -15 4 9 5 17 4 17 -2 1 -22 14 -45 29 -48 31 -49 31 -58 16z"/> <path d="M810 970 c-78 -64 -99 -88 -77 -91 14 -2 187 135 184 145 -7 21 -26 12 -107 -54z"/> <path d="M2051 967 c-6 -9 16 -38 74 -99 60 -61 87 -83 94 -75 6 9 -16 38 -74 99 -60 61 -87 83 -94 75z"/> <path d="M2370 947 c0 -8 78 -66 174 -130 144 -96 175 -113 181 -99 3 9 2 18 -3 20 -5 1 -82 52 -172 112 -90 61 -167 110 -172 110 -4 0 -8 -6 -8 -13z"/> <path d="M936 729 c-91 -123 -116 -163 -107 -172 9 -9 14 -8 21 3 5 8 58 81 118 162 82 109 107 150 98 157 -9 8 -44 -32 -130 -150z"/> <path d="M1832 821 c-11 -7 -10 -16 7 -50 20 -39 34 -50 44 -33 3 4 -5 26 -17 49 -15 30 -25 40 -34 34z"/> <path d="M1116 712 c-35 -67 -52 -110 -46 -116 12 -12 7 -19 74 105 45 85 53 108 41 112 -11 5 -29 -22 -69 -101z"/> <path d="M1209 688 c-19 -51 -35 -96 -37 -100 -2 -5 6 -8 17 -8 12 0 21 6 21 13 0 7 14 48 30 90 34 89 35 97 16 97 -8 0 -27 -38 -47 -92z"/> <path d="M1360 738 c-1 -13 -18 -104 -40 -203 -28 -132 -35 -182 -27 -187 7 -4 15 0 19 10 14 34 79 375 74 388 -8 22 -26 16 -26 -8z"/> <path d="M1684 752 c-6 -5 3 -60 25 -154 27 -116 39 -148 51 -148 15 0 13 17 -16 133 -19 72 -34 140 -34 149 0 20 -12 29 -26 20z"/> <path d="M1321 734 c0 -11 3 -14 6 -6 3 7 2 16 -1 19 -3 4 -6 -2 -5 -13z"/> <path d="M1410 725 c0 -29 -40 -520 -45 -557 -4 -32 -2 -38 13 -38 16 0 19 23 35 238 10 130 21 267 24 305 5 58 3 67 -11 67 -9 0 -16 -7 -16 -15z"/> <path d="M1573 673 c4 -38 7 -90 7 -116 0 -42 2 -47 18 -38 16 8 16 19 8 115 -7 83 -12 106 -24 106 -12 0 -14 -12 -9 -67z"/> <path d="M2325 680 c-5 -7 13 -33 46 -68 30 -31 55 -59 57 -61 1 -3 8 1 14 7 10 10 -1 26 -49 73 -41 42 -63 57 -68 49z"/> <path d="M1943 593 c-17 -6 82 -203 102 -203 8 0 15 2 15 5 0 7 -100 205 -103 204 -1 0 -7 -3 -14 -6z"/> <path d="M1071 311 c-28 -76 -51 -141 -51 -144 0 -4 6 -7 14 -7 9 0 31 46 59 123 25 67 48 129 52 138 4 10 0 19 -8 22 -11 4 -27 -30 -66 -132z"/> <path d="M893 288 c-23 -45 -29 -64 -21 -69 12 -8 77 92 78 119 0 31 -28 6 -57 -50z"/> <path d="M1613 323 c-9 -3 -11 -22 -7 -66 8 -101 14 -127 28 -127 10 0 12 17 9 73 -6 91 -15 125 -30 120z"/> <path d="M2077 314 c-10 -11 52 -124 68 -124 20 0 20 1 -15 70 -29 57 -39 68 -53 54z"/> <path d="M1784 283 c4 -9 14 -45 22 -80 11 -42 21 -63 31 -63 11 0 14 6 9 23 -3 12 -11 48 -18 80 -10 45 -16 57 -31 57 -14 0 -17 -5 -13 -17z"/> <path d="M1432 200 c0 -14 2 -19 5 -12 2 6 2 18 0 25 -3 6 -5 1 -5 -13z"/> </g> </svg> 